<?xml version="1.0" encoding="UTF-8" standalone="no"?>
<!-- Created with Inkscape (http://www.inkscape.org/) -->

<svg
   width="67.73333mm"
   height="67.73333mm"
   viewBox="0 0 67.73333 67.73333"
   version="1.1"
   id="svg1"
   xml:space="preserve"
   xmlns="http://www.w3.org/2000/svg"
   xmlns:svg="http://www.w3.org/2000/svg"><defs
     id="defs1" /><circle
     style="fill:#ffffff;stroke-width:1.6471"
     id="path2"
     cx="33.808624"
     cy="33.982746"
     r="32.879974" /><path
     style="fill:#000000;stroke-width:0.250152"
     d="m 31.480266,67.66972 c -5.10448,-0.489077 -8.78778,-1.51552 -12.94011,-3.606078 -3.34195,-1.68257 -5.67205,-3.393408 -8.5758502,-6.29671 -2.89762,-2.897095 -4.54311,-5.136293 -6.28558,-8.553429 -4.9025799,-9.614379 -4.9050199,-21.072737 -0.007,-30.667764 1.75072,-3.429267 3.40376,-5.68025 6.29214,-8.5681073 1.1669702,-1.166774 2.6929602,-2.547887 3.3910602,-3.069139 12.33669,-9.2113236 28.678919,-9.2113236 41.015599,0 0.69811,0.521252 2.2241,1.902365 3.39108,3.069139 3.0418,3.0412583 4.66235,5.2910863 6.4857,9.0041343 2.05677,4.188367 3.05957,7.941062 3.40433,12.739664 0.56996,7.933024 -1.85776,16.012944 -6.79814,22.625619 -1.24816,1.670648 -4.84143,5.263288 -6.51237,6.511224 -5.23411,3.909063 -11.10596,6.161485 -17.632149,6.763626 -1.35304,0.124841 -4.15762,0.150487 -5.22915,0.04782 z m -1.50853,-2.165297 c 3.93744,-0.309751 6.66368,-0.814562 8.25497,-1.528564 0.49987,-0.224288 0.79925,-0.438719 0.79894,-0.572249 -5.3e-4,-0.243086 -1.66554,-7.155008 -1.73886,-7.218619 -0.14702,-0.127545 -12.73117,-5.502971 -12.88275,-5.502971 -0.24073,0 -10.82863,3.581535 -10.9753,3.712583 -0.063,0.05629 -0.0449,1.120203 0.0406,2.389709 0.1265,1.876737 0.19454,2.318139 0.37834,2.454481 4.26989,3.167232 8.2763,5.08885 12.76948,6.124694 1.33702,0.308234 1.26586,0.305245 3.35453,0.140936 z m 14.614509,-3.052559 c 4.09603,-0.679604 6.38442,-1.376611 8.29677,-2.527065 2.27874,-1.370869 5.71165,-4.888248 7.66442,-7.852997 l 0.4359,-0.6618 -0.28351,-3.143554 c -0.28274,-3.134796 -0.2844,-3.143554 -0.59586,-3.143554 -0.17178,0 -2.86325,0.237352 -5.98106,0.527447 l -5.66873,0.527449 -1.64566,1.689584 c -4.05735,4.165627 -7.322139,7.609526 -7.356849,7.760452 -0.0294,0.127839 1.34495,6.096481 1.63919,7.118829 0.0754,0.261776 0.208719,0.250526 3.495389,-0.294791 z M 17.910936,50.595998 c 2.98527,-0.993687 5.45756,-1.851691 5.494,-1.906677 0.0364,-0.05499 0.32796,-2.939928 0.64784,-6.410984 l 0.58161,-6.311013 -1.12342,-1.146792 c -0.61787,-0.630732 -3.14224,-3.231459 -5.6097,-5.779394 -3.3741,-3.484147 -4.55702,-4.626938 -4.77161,-4.609751 -0.81796,0.06552 -4.1437202,1.635141 -5.7724102,2.724338 l -1.15448,0.772065 -0.41169,1.333854 c -0.81006,2.624598 -1.06792,4.277053 -1.14291,7.324021 -0.0738,3.00041 0.0839,4.792708 0.63544,7.220339 0.27189,1.196737 0.33179,1.314146 1.38821,2.720698 1.29861,1.729033 3.13721,3.708003 4.6199602,4.972671 0.5825,0.496816 1.08885,0.903306 1.12525,0.903314 0.0364,8e-6 2.50865,-0.813001 5.49391,-1.806689 z m 36.912609,-7.146242 5.67008,-0.509238 0.59444,-1.090306 c 1.47063,-2.697437 2.58561,-6.440688 3.20322,-10.753944 l 0.23641,-1.650953 -0.43646,-1.111535 c -1.46766,-3.737817 -4.16636,-7.563646 -7.21035,-10.221815 l -0.74512,-0.650686 -4.07871,-0.262676 c -2.24329,-0.144472 -4.09483,-0.246572 -4.11451,-0.22689 -0.0943,0.09428 -5.73921,15.623689 -5.73921,15.788818 0,0.104328 1.19904,2.288249 2.66454,4.853154 4.03109,7.055205 3.67335,6.482033 4.00014,6.409055 0.157,-0.03506 2.837,-0.292904 5.95553,-0.572984 z M 2.8030558,32.614862 c 0.25909,-1.545661 0.8862,-3.974547 1.30696,-5.062 0.27419,-0.708652 0.29488,-0.976104 0.29629,-3.830513 0.002,-3.459773 0.0324,-3.423395 -0.8676,-1.027677 -1.20133,3.197705 -1.82177,6.442713 -1.93776,10.134751 -0.0931,2.963043 0.097,5.168951 0.52819,6.129462 l 0.29294,0.652537 0.0795,-2.836479 c 0.0463,-1.650741 0.17229,-3.389789 0.30143,-4.160081 z m 30.5212102,0.64076 c 3.68211,-0.703154 6.74173,-1.318958 6.79917,-1.368451 0.0783,-0.06751 3.770499,-10.017431 5.662199,-15.258975 l 0.18065,-0.500528 -4.02122,-4.022129 C 38.663016,8.8227497 37.841546,8.0679717 37.476076,7.9994217 c -0.24627,-0.04619 -1.45418,-0.08239 -2.68423,-0.08044 -5.08053,0.0081 -9.38647,1.178935 -14.27858,3.8826383 -1.195,0.660441 -1.26331,0.723784 -2.02138,1.874271 -1.59944,2.4274 -2.94356,5.481944 -3.45289,7.8467 l -0.26326,1.222322 5.72116,5.894585 c 3.14665,3.242021 5.81375,5.894586 5.9269,5.894586 0.11316,0 3.21836,-0.575308 6.90047,-1.278462 z m 31.114769,-9.8609 c -1.94303,-5.691659 -5.59613,-10.865742 -10.45356,-14.8059753 -0.68954,-0.559336 -0.70631,-0.47687 -0.0544,0.267469 1.13855,1.2999553 2.51306,3.9068453 2.98038,5.6525893 0.28254,1.055433 0.28467,1.058516 1.38077,2.004886 2.17953,1.881794 4.96049,5.314037 6.14973,7.589973 0.17865,0.34191 0.34604,0.600437 0.37197,0.574511 0.0259,-0.02593 -0.14277,-0.603484 -0.3749,-1.283453 z M 21.257316,9.0033217 c 4.61495,-2.312995 10.30603,-3.522692 15.10996,-3.211776 l 1.37885,0.08924 0.86736,-0.710841 c 1.01435,-0.831297 2.20419,-1.654877 3.102789,-2.147692 l 0.63819,-0.35 -1.233919,-0.283388 c -2.63412,-0.604961 -3.87563,-0.7325635 -7.19118,-0.7391025 -3.58356,-0.00707 -4.9693,0.1520975 -8.04776,0.9243605 -2.42719,0.608886 -3.96822,1.188731 -6.51443,2.451192 -1.88002,0.932153 -4.54426,2.636906 -4.65902,2.981159 -0.0329,0.09854 4.45377,1.717211 4.89273,1.765188 0.0557,0.0061 0.80112,-0.339663 1.65643,-0.76834 z"
     id="path1" /></svg>
