<?xml version="1.0" encoding="UTF-8" standalone="no"?>
<svg
   height="64"
   viewBox="0 0 64 64"
   width="64"
   version="1.1"
   id="svg1"
   sodipodi:docname="Unreal_Engine.svg"
   inkscape:version="1.4 (86a8ad7, 2024-10-11)"
   xmlns:inkscape="http://www.inkscape.org/namespaces/inkscape"
   xmlns:sodipodi="http://sodipodi.sourceforge.net/DTD/sodipodi-0.dtd"
   xmlns="http://www.w3.org/2000/svg"
   xmlns:svg="http://www.w3.org/2000/svg">
  <defs
     id="defs1" />
  <sodipodi:namedview
     id="namedview1"
     pagecolor="#ffffff"
     bordercolor="#000000"
     borderopacity="0.25"
     inkscape:showpageshadow="2"
     inkscape:pageopacity="0.0"
     inkscape:pagecheckerboard="0"
     inkscape:deskcolor="#d1d1d1"
     inkscape:zoom="11.313709"
     inkscape:cx="33.543378"
     inkscape:cy="38.051184"
     inkscape:window-width="2560"
     inkscape:window-height="1369"
     inkscape:window-x="1912"
     inkscape:window-y="-8"
     inkscape:window-maximized="1"
     inkscape:current-layer="svg1" />
  <circle
     style="fill:#000000;stroke-width:2.20953"
     id="path2"
     cx="32.615299"
     cy="32.173359"
     r="30.759146" />
  <path
     d="M 0,32 A 32,32 0 0 0 32,64 32,32 0 0 0 64,32 32,32 0 0 0 32,0 32,32 0 0 0 0,32 M 10.368,53.632 C 4.576,47.84 1.408,40.16 1.408,32 1.408,23.84 4.576,16.16 10.368,10.368 16.16,4.576 23.84,1.408 32,1.408 c 8.16,0 15.84,3.168 21.632,8.96 5.792,5.792 8.96,13.472 8.96,21.632 0,8.16 -3.168,15.84 -8.96,21.632 -5.792,5.792 -13.472,8.96 -21.632,8.96 -8.16,0 -15.84,-3.168 -21.632,-8.96 M 13.92,24 c -6.432,7.328 -5.184,13.376 -5.184,13.376 0,0 1.76,-4.16 6.016,-8.576 2.048,-2.016 3.552,-2.72 4.576,-2.72 1.152,0 1.696,0.832 1.696,1.6 v 14.848 c 0,1.472 -0.96,1.792 -1.824,1.76 -0.736,0 -1.44,-0.256 -1.44,-0.256 4.384,6.304 14.848,7.168 14.848,7.168 l 4.608,-4.8 h 0.128 l 4.256,3.616 c 7.648,-4.544 11.36,-12.96 11.36,-12.96 -3.36,3.584 -5.632,4.448 -6.912,4.416 -1.152,0 -1.632,-0.672 -1.632,-0.672 -0.032,-0.32 -0.192,-18.72 0.032,-18.72 1.344,-2.464 5.568,-7.488 5.568,-7.488 -7.904,1.568 -12.224,6.72 -12.224,6.72 -1.28,-0.992 -3.904,-0.832 -3.904,-0.832 1.216,0.672 2.432,2.592 2.432,4.224 V 40.48 c 0,0 -2.72,2.336 -4.704,2.336 -1.216,0 -1.952,-0.672 -2.368,-1.216 C 28.96,41.216 28.8,40.928 28.8,40.928 V 21.408 C 28.576,21.6 28.224,21.76 27.872,21.76 27.424,21.728 26.976,21.536 26.688,20.896 26.432,20.416 26.304,19.68 26.304,18.656 26.304,15.04 30.4,12.672 30.4,12.672 25.184,14.048 20.352,16.704 13.92,24"
     id="path1"
     style="stroke-width:3.2;fill:#ffffff" />
</svg>
