<?xml version="1.0" encoding="UTF-8" standalone="no"?>
<svg
   width="64"
   height="64"
   version="1.1"
   id="svg86"
   xmlns="http://www.w3.org/2000/svg"
   xmlns:svg="http://www.w3.org/2000/svg">
  <defs
     id="defs2">
    <linearGradient
       id="gradient_0"
       gradientUnits="userSpaceOnUse"
       x1="44.309246"
       y1="16.725672"
       x2="43.474571"
       y2="84.287102">
      <stop
         offset="0"
         stop-color="#C0DDEE"
         id="stop1" />
      <stop
         offset="1"
         stop-color="white"
         id="stop2" />
    </linearGradient>
  </defs>
  <defs
     id="defs4">
    <linearGradient
       id="gradient_1"
       gradientUnits="userSpaceOnUse"
       x1="10.329185"
       y1="62.102386"
       x2="19.635214"
       y2="58.310246">
      <stop
         offset="0"
         stop-color="#ACE603"
         id="stop3" />
      <stop
         offset="1"
         stop-color="#D4D71E"
         id="stop4" />
    </linearGradient>
  </defs>
  <path
     style="fill:#859892;fill-opacity:1;stroke-width:1.01577"
     d="m 51.511019,51.959534 1.656238,-0.113775 3.241999,-1.972102 2.273423,-6.65797 -3.638002,-14.58848 -11.860879,-5.738851 -6.578303,-8.474191 -12.259565,1.769926 -4.584877,21.775452 2.84063,11.477702 16.246416,2.359902 z"
     id="path87" />
  <path
     fill="#5d786a"
     d="m 5.5379398,38.364509 0.3508273,-0.03088 c 0.3192988,0.296322 0.6195043,0.702868 1.039557,0.765673 -0.271027,1.40595 -0.5303044,3.627202 -1.2894346,4.788883 -0.095662,3.15068 -1.444433,6.251834 -0.8753546,9.45004 C 3.1707616,52.702904 1.5393121,52.128807 0,51.353229 0.44942704,50.125371 0.47821386,48.416676 0.65308896,47.101565 0.95867974,46.010381 1.1643979,44.862505 1.41124,43.752775 2.0720642,41.37019 4.2521281,40.274265 5.5379398,38.364509 Z"
     id="path9"
     style="stroke-width:1.01577" />
  <path
     fill="#74877f"
     d="m 11.121802,11.994958 c 1.026338,0.712247 1.79007,1.578765 2.607949,2.546236 2.115245,0.02919 3.648779,-0.224243 5.454811,1.260631 l 1.09243,0.650073 c 1.514736,0.399065 3.323998,0.990021 4.721236,1.733038 -0.418192,0.703289 -0.498678,1.28434 -0.556349,2.107971 -0.601978,0.819204 -0.232742,1.571388 -0.685695,2.379423 -0.572603,1.021739 -2.374227,2.123355 -2.588367,3.217279 -0.01998,0.1019 -0.03672,0.200533 -0.04406,0.304751 -1.572896,3.402112 -0.03271,11.840739 0.470772,15.731486 0.231274,6.698529 0.702536,13.828052 0.04847,20.498761 Q 20.164781,61.854515 18.668845,61.340484 L 17.66023,61.500236 16.723582,60.944159 16.227645,60.400938 15.46078,59.677943 C 14.347983,59.342422 13.029957,58.132583 12.04298,57.44626 10.321841,56.544123 8.6375176,55.620595 6.9847228,54.57936 6.2250051,54.214227 5.4961304,53.762158 4.7635349,53.338225 4.1944565,50.140019 5.5432272,47.038865 5.6388895,43.888185 6.3980197,42.726504 6.6572971,40.505252 6.9283241,39.099306 6.5082714,39.036501 6.2080659,38.629955 5.8887671,38.333633 l -0.3508273,0.03088 -0.3532751,-0.679052 9.757e-4,-0.03952 c 0.1071184,-3.0864 1.4458038,-5.311129 2.613335,-8.058952 l 1.1820259,-6.63014 C 9.5621231,19.304255 10.926463,15.705088 11.121802,11.994958 Z"
     id="path15"
     style="stroke-width:1.01577" />
  <path
     fill="#3a7550"
     d="m 20.276992,16.451898 c 1.514736,0.399065 3.323998,0.990021 4.721236,1.733038 -0.418192,0.703289 -0.498678,1.28434 -0.556349,2.107971 -0.601978,0.819204 -0.232742,1.571388 -0.685695,2.379423 -0.572603,1.021739 -2.374227,2.123355 -2.588367,3.217279 -0.01998,0.1019 -0.03672,0.200533 -0.04406,0.304751 -0.235484,-1.187182 -0.544209,-1.430815 -1.43944,-2.074039 -0.08333,-2.576795 0.267209,-5.123873 0.592675,-7.668423 z"
     id="path16"
     style="stroke-width:1.01577" />
  <path
     fill="#3a7550"
     d="m 13.729751,14.541194 c 2.115245,0.02919 3.648779,-0.224243 5.454811,1.260631 l -3.088416,-0.241736 c 0.28356,5.373618 -0.120239,11.642418 -1.814843,16.725405 -0.758445,2.274889 -1.85019,4.431965 -2.758934,6.641625 -0.48546,1.180438 -0.591794,2.577849 -1.178106,3.695693 -0.7101723,-1.45579 0.02037,-3.402006 0.361402,-4.945259 0.45775,-1.266005 0.309018,-2.73444 0.272202,-4.070731 q 0.131891,-0.130774 0.25164,-0.274508 c 2.58122,-3.059108 4.044354,-12.972387 3.867129,-16.998228 z"
     id="path17"
     style="stroke-width:1.01577" />
  <path
     fill="#74877f"
     d="m 11.121802,11.994958 c 1.026338,0.712247 1.79007,1.578765 2.607949,2.546236 l 1.366885,1.792892 c 0.177225,4.025841 -1.285909,13.93912 -3.867129,16.998228 q -0.119749,0.143734 -0.25164,0.274508 c 0.03681,1.336291 0.185548,2.804726 -0.272202,4.070731 -0.341035,1.543253 -1.0715743,3.489469 -0.361402,4.945259 -0.3903847,0.647334 -0.308528,1.85243 -0.161264,2.585015 0.136492,0.679473 0.485361,1.208047 0.214334,1.856118 -1.0352489,0.709717 -1.5459704,0.331728 -2.6746295,0.410129 -0.798296,2.336219 -0.3467149,4.728603 -0.7379807,7.105286 -0.7597177,-0.365133 -1.4885924,-0.817202 -2.2211879,-1.241135 -0.5690784,-3.198206 0.7796923,-6.29936 0.8753546,-9.45004 0.7591302,-1.161681 1.0184076,-3.382933 1.2894346,-4.788879 -0.4200527,-0.0628 -0.7202582,-0.469351 -1.039557,-0.765673 l -0.3508273,0.03088 -0.3532751,-0.679052 9.757e-4,-0.03952 c 0.1071184,-3.0864 1.4458038,-5.311129 2.613335,-8.058952 l 1.1820259,-6.63014 C 9.5621231,19.304255 10.926463,15.705088 11.121802,11.994958 Z"
     id="path18"
     style="stroke-width:1.01577" />
  <path
     fill="#3a7550"
     d="M 6.9283241,39.099306 C 7.045038,37.787567 7.0528712,36.31713 7.3514122,35.040588 7.9951013,32.28855 9.7739124,29.812812 10.676976,27.134854 c 0.464212,-1.37644 0.40752,-2.903043 0.823166,-4.32037 l 0.315579,-0.153008 c 0.05904,0.0862 0.116224,0.182197 0.140703,0.287259 0.006,0.02571 0.01038,0.05185 0.0141,0.07808 0.0042,0.02898 -1.03848,9.579865 -1.045334,9.591984 -0.04857,0.08557 -0.09703,0.170817 -0.154019,0.250482 -0.0094,0.01317 -0.01929,0.02592 -0.02898,0.03888 -0.8561633,0.76483 -1.3302651,2.486276 -1.4354247,3.640581 -0.038579,0.422985 -0.046216,0.850923 -0.046901,1.275489 l 1.4458027,-0.146686 c -0.341035,1.543253 -1.0715736,3.489469 -0.361401,4.945259 -0.390385,0.647334 -0.308528,1.85243 -0.161265,2.585015 0.136493,0.679473 0.485362,1.208047 0.214335,1.856118 C 9.3620906,47.773654 8.8513692,47.395665 7.7227101,47.474066 6.9244075,49.810293 7.3759886,52.202677 6.9847228,54.57936 6.2250051,54.214227 5.4961304,53.762158 4.7635349,53.338225 4.1944565,50.140019 5.5432272,47.038865 5.6388895,43.888185 6.3980197,42.726504 6.6572971,40.505252 6.9283241,39.099306 Z"
     id="path19"
     style="stroke-width:1.01577" />
  <path
     fill="#5d786a"
     d="m 7.7227035,47.474074 c 0.2405756,-0.446168 0.1964163,-1.142818 0.23568,-1.651159 0.2134533,-2.760152 0.8770191,-5.295534 1.301478,-7.998676 l 1.4458035,-0.146686 c -0.341035,1.543253 -1.0715743,3.489469 -0.361402,4.945259 -0.3903847,0.647334 -0.308528,1.85243 -0.161264,2.585015 0.136492,0.679473 0.485361,1.208047 0.214334,1.856118 -1.0352489,0.709717 -1.5459704,0.331728 -2.6746295,0.410129 z"
     id="path20"
     style="stroke-width:1.01577" />
  <defs
     id="defs21">
    <linearGradient
       id="gradient_2"
       gradientUnits="userSpaceOnUse"
       x1="25.037827"
       y1="47.403595"
       x2="37.294445"
       y2="51.63364"
       gradientTransform="matrix(0.97914386,0,0,1.0537746,-10.439338,-9.0239461)">
      <stop
         offset="0"
         stop-color="#397A49"
         id="stop20" />
      <stop
         offset="1"
         stop-color="#606D6F"
         id="stop21" />
    </linearGradient>
  </defs>
  <path
     fill="url(#gradient_2)"
     d="m 19.684316,24.120321 c 0.895231,0.643224 1.203956,0.886857 1.43944,2.074039 -1.572896,3.402112 -0.03271,11.840739 0.470772,15.731486 0.231274,6.698529 0.702536,13.828052 0.04847,20.498761 Q 20.164781,61.854515 18.668845,61.340484 L 17.66023,61.500236 16.723582,60.944159 16.227645,60.400938 15.46078,59.677943 c -1.112797,-0.335521 -2.430823,-1.54536 -3.4178,-2.231683 -0.18545,-4.595512 0.839127,-13.113804 2.610202,-17.234379 0.746009,-1.735461 2.15911,-3.005997 2.830999,-4.824707 1.267501,-3.129605 -0.981397,-6.470071 2.200135,-11.266853 z"
     id="path21"
     style="fill:url(#gradient_2);stroke-width:1.01577" />
  <path
     fill="#3a7550"
     d="m 17.418774,41.17619 c 0.736903,0.0607 0.900421,0.06481 1.482522,0.544486 0.512581,1.052615 0.326055,1.94748 0.0142,3.026756 -0.120532,0.417084 -0.235288,0.800869 -0.480465,1.156518 -0.205522,0.0372 -0.414472,0.0725 -0.622638,0.0863 -0.73661,0.04868 -0.983255,-0.200638 -1.49995,-0.701076 0.558797,-1.271484 0.799666,-2.74856 1.106335,-4.112988 z"
     id="path22"
     style="stroke-width:1.01577" />
  <path
     fill="#3a7550"
     d="m 16.312439,45.289178 c 0.516695,0.500438 0.76334,0.749761 1.49995,0.701076 0.208166,-0.0138 0.417116,-0.04911 0.622638,-0.0863 0.337217,5.1871 0.666504,10.228358 0.23382,15.436534 L 17.66023,61.500236 16.723582,60.944159 16.227645,60.400938 15.46078,59.677943 c 0.594144,-3.42266 -0.702928,-11.843267 0.851659,-14.388765 z"
     id="path23"
     style="stroke-width:1.01577" />
  <path
     fill="#5d786a"
     d="m 17.484181,35.387174 c 0.29149,1.97235 0.279937,3.825729 -0.0654,5.789016 -0.306669,1.364428 -0.547538,2.841504 -1.106335,4.112988 -1.554587,2.545498 -0.257515,10.966105 -0.851659,14.388765 -1.112797,-0.335521 -2.430823,-1.54536 -3.4178,-2.231683 -0.18545,-4.595512 0.839126,-13.113804 2.610201,-17.234379 0.74601,-1.735461 2.159111,-3.005997 2.830999,-4.824707 z"
     id="path24"
     style="stroke-width:1.01577" />
  <defs
     id="defs32">
    <linearGradient
       id="gradient_3"
       gradientUnits="userSpaceOnUse"
       x1="44.452106"
       y1="4.9910197"
       x2="44.823898"
       y2="13.894687">
      <stop
         offset="0"
         stop-color="#06B6F2"
         id="stop31" />
      <stop
         offset="1"
         stop-color="#25DBFC"
         id="stop32" />
    </linearGradient>
  </defs>
  <path
     fill="#61d705"
     d="M 12.741109,6.0446092 C 14.466557,5.6935969 16.243605,5.8317468 17.981389,5.547333 21.630854,4.9499482 24.5019,2.0563885 27.550954,0 c 2.345638,0.72237303 4.528149,2.4666229 6.823066,3.0408247 2.417898,0.6048666 4.65583,-0.4313099 7.092037,0.5275196 1.148536,0.348694 2.335552,0.7424896 3.522373,0.8918094 1.572113,0.1976882 5.899929,-0.133724 7.059724,0.4873708 -0.06355,0.5375304 -0.06981,1.2828652 -0.266718,1.7724489 -0.718398,1.4318689 -1.35396,3.2147502 -2.924605,3.7164526 -0.69294,0.221292 -1.407813,0.363973 -2.108194,0.555655 -0.987957,1.176434 -2.420444,1.071794 -3.742092,1.458951 l -0.590718,0.338367 c -0.870753,0.07861 -2.131988,0.01022 -2.849211,0.593064 l -0.206207,0.886225 c -0.351513,0.702867 -0.731715,1.186972 -1.466073,1.426705 q -0.177322,0.05954 -0.361499,0.08609 c -0.834329,0.229723 -1.724175,0.547857 -2.57182,0.687166 -2.220013,0.332466 -2.276999,1.861914 -4.844999,2.260136 -0.434446,-0.0784 -0.9953,0.0095 -1.441888,0.02708 -1.111328,0.379886 -2.602466,-0.250482 -3.675902,-0.570935 -1.397238,-0.743017 -3.2065,-1.333973 -4.721236,-1.733038 l -1.09243,-0.650073 c -1.806032,-1.484874 -3.339566,-1.231442 -5.454811,-1.260631 -0.817879,-0.967471 -1.581611,-1.833989 -2.607949,-2.546236 -0.03936,-0.791279 0.0029,-1.605215 0.0081,-2.3988122 l 0.150984,0.041413 c 0.02106,-1.0103591 0.601585,-2.3478099 0.901399,-3.3251858 z"
     id="path33"
     style="stroke-width:1.01577" />
  <path
     fill="#b9e60f"
     d="m 24.993627,15.580426 c 0.904239,-1.151354 2.808477,-0.760403 4.115047,-1.182545 0.98404,0.0065 2.091549,-0.163019 2.88211,0.506549 l 0.18408,0.756189 c -1.225987,0.400223 -3.045334,0.38526 -3.927542,1.396146 -0.883678,-0.778107 -2.178008,-1.099087 -3.253695,-1.476339 z"
     id="path34"
     style="stroke-width:1.01577" />
  <path
     fill="#7fec68"
     d="m 41.466057,3.5683443 c 1.148536,0.348694 2.335552,0.7424896 3.522373,0.8918094 1.572113,0.1976882 5.899929,-0.133724 7.059724,0.4873708 -0.06355,0.5375304 -0.06981,1.2828652 -0.266718,1.7724489 -0.718398,1.4318689 -1.35396,3.2147502 -2.924605,3.7164526 -0.69294,0.221292 -1.407813,0.363973 -2.108194,0.555655 0.307744,-0.72584 1.432487,-0.990653 2.006462,-1.4954115 -0.381769,-0.3481671 -0.883581,-0.3119173 -1.358857,-0.3391047 -1.476353,0.5085517 -2.962987,0.69096 -4.447663,1.1067792 -0.693331,0.194106 -1.307157,0.586637 -2.022814,0.777475 -0.09155,-0.249534 0.03133,-0.510237 0.109078,-0.748812 1.699695,-1.5546337 3.476058,-1.9703478 5.582196,-2.5555088 0.89112,-0.3020118 1.918437,-1.2608414 2.705864,-1.8356754 C 47.330738,5.8032949 44.869758,5.9649439 42.986374,5.2339404 42.156158,4.9116962 41.834998,4.4024069 41.466057,3.5683443 Z"
     id="path35"
     style="stroke-width:1.01577" />
  <path
     fill="#7fec68"
     d="m 29.108674,14.397881 c 2.159894,-0.2959 4.060608,-1.160101 6.177027,-1.604583 1.979438,-0.415714 3.706158,-0.278934 5.6525,-0.420035 0.702536,-0.03151 1.369235,-0.0018 2.068344,0.07777 L 42.415827,12.7894 c -0.870753,0.07861 -2.131988,0.01022 -2.849211,0.593064 l -0.206207,0.886225 c -0.351513,0.702867 -0.731715,1.186972 -1.466073,1.426705 q -0.177322,0.05954 -0.361499,0.08609 c -0.834329,0.229723 -1.724175,0.547857 -2.57182,0.687166 -2.220013,0.332466 -2.276999,1.861914 -4.844999,2.260136 -0.434446,-0.0784 -0.9953,0.0095 -1.441888,0.02708 L 28.247322,17.05676 c 0.882208,-1.010886 2.701555,-0.995923 3.927542,-1.396146 l -0.18408,-0.756189 c -0.790561,-0.669568 -1.89807,-0.500016 -2.88211,-0.506549 z"
     id="path36"
     style="stroke-width:1.01577" />
  <path
     fill="#61d705"
     d="m 32.174864,15.660619 c 1.696464,-0.108118 3.197394,-2.009759 4.784684,-1.462007 0.562518,0.579049 0.502594,0.738907 0.573289,1.582875 -0.834329,0.229723 -1.724175,0.547857 -2.57182,0.687166 -2.220013,0.332466 -2.276999,1.861914 -4.844999,2.260136 -0.434446,-0.0784 -0.9953,0.0095 -1.441888,0.02708 l -0.426808,-1.699106 c 0.882208,-1.010886 2.701555,-0.995923 3.927542,-1.396146 z"
     id="path37"
     style="stroke-width:1.01577" />
  <path
     fill="#00c503"
     d="M 12.741109,6.0446092 C 14.466557,5.6935969 16.243605,5.8317468 17.981389,5.547333 21.630854,4.9499482 24.5019,2.0563885 27.550954,0 c -0.06972,2.1136084 -1.68912,4.6810249 -2.566042,6.5848795 0.667678,0.5411133 1.602858,0.3719824 2.405169,0.2507983 1.275923,-0.1927353 3.853029,-1.3801286 4.971211,-1.2008815 l 0.107706,0.3273024 c -2.600606,1.1717974 -12.423475,3.5766164 -13.402326,5.6490753 0.04181,0.798023 0.839323,1.639673 1.378243,2.148646 0.07794,0.07355 0.160286,0.13952 0.246157,0.202009 1.428865,0.515401 2.921962,0.970421 4.302555,1.618597 1.075687,0.377252 2.370017,0.698232 3.253695,1.476339 l 0.426808,1.699106 c -1.111328,0.379886 -2.602466,-0.250482 -3.675902,-0.570935 -1.397238,-0.743017 -3.2065,-1.333973 -4.721236,-1.733038 l -1.09243,-0.650073 c -1.806032,-1.484874 -3.339566,-1.231442 -5.454811,-1.260631 -0.817879,-0.967471 -1.581611,-1.833989 -2.607949,-2.546236 -0.03936,-0.791279 0.0029,-1.605215 0.0081,-2.3988122 l 0.150984,0.041413 c 0.02106,-1.0103591 0.601585,-2.3478099 0.901399,-3.3251858 z"
     id="path38"
     style="stroke-width:1.01577" />
  <path
     fill="#45ae01"
     d="m 12.182312,6.3123734 0.558797,-0.2677642 c 0.771664,0.2160238 2.362577,0.4688244 2.819445,1.1741157 -0.11691,0.7307927 -0.562517,1.1309109 -1.105062,1.5861416 L 12.626061,8.6711425 C 12.242333,8.9921222 11.817972,9.2899189 11.584056,9.76064 l -0.09987,0.533948 -0.203271,-0.6570288 c 0.02105,-1.0103591 0.601586,-2.3478099 0.9014,-3.3251858 z"
     id="path39"
     style="stroke-width:1.01577" />
  <path
     fill="#45ae01"
     d="m 11.129928,9.5961458 0.150984,0.041413 0.203271,0.6570292 0.09987,-0.5339484 c 0.954567,1.2999364 1.586017,2.6211594 2.905217,3.5479544 2.024968,0.04047 4.584841,0.69233 6.201799,0.653235 1.428865,0.515401 2.921962,0.970421 4.302555,1.618597 1.075687,0.377252 2.370017,0.698232 3.253695,1.476339 l 0.426808,1.699106 c -1.111328,0.379886 -2.602466,-0.250482 -3.675902,-0.570935 -1.397238,-0.743017 -3.2065,-1.333973 -4.721236,-1.733038 l -1.09243,-0.650073 c -1.806032,-1.484874 -3.339566,-1.231442 -5.454811,-1.260631 -0.817879,-0.967471 -1.581611,-1.833989 -2.607949,-2.546236 -0.03936,-0.791279 0.0029,-1.605215 0.0081,-2.3988126 z"
     id="path40"
     style="stroke-width:1.01577" />
  <path
     fill="#74877f"
     d="m 34.865257,26.850124 c -0.03946,-1.523758 -0.404583,-9.270055 0.151081,-10.01265 0.751102,1.721657 1.001959,3.430142 1.10614,5.316082 -0.135024,1.084124 -0.190542,2.159711 -0.233232,3.251949 l -0.657202,-0.178299 c -0.242631,0.482734 -0.282972,1.08739 -0.366787,1.622918 z"
     id="path42"
     style="stroke-width:1.01577" />
  <path
     fill="#babfb6"
     d="m 32.030244,30.725381 c 0.01752,0.01844 0.03564,0.03614 0.05258,0.05511 0.712229,0.796864 1.035934,11.449261 0.942817,13.346266 L 32.225975,43.596605 C 31.051296,41.629208 31.734445,33.111442 32.030244,30.725381 Z"
     id="path43"
     style="stroke-width:1.01577" />
  <path
     fill="#5d786a"
     d="m 36.122478,22.153556 c 0.596494,0.877057 0.122295,2.465938 1.526387,2.68839 0.69294,0.109803 0.837462,-0.02698 1.372564,0.500965 0.189758,0.709506 0.291198,1.406051 0.37648,2.137898 l 0.141781,1.485506 -0.09968,4.182958 -0.771467,0.138044 -0.474689,1.161998 c -1.080975,0.722994 -2.414374,0.482312 -3.597865,0.824789 -0.04758,-2.785864 0.173309,-5.635692 0.269265,-8.42398 0.08381,-0.535528 0.124156,-1.140184 0.366787,-1.622918 l 0.657202,0.178299 c 0.04269,-1.092238 0.09821,-2.167825 0.233232,-3.251949 z"
     id="path44"
     style="stroke-width:1.01577" />
  <path
     fill="#9ca9a0"
     d="m 36.584046,27.25077 c 0.58357,0.758717 1.14883,1.568438 1.820229,2.239903 -0.0074,1.289082 -0.04925,2.541704 0.264271,3.796644 l -0.474689,1.161998 c -1.74366,-2.188479 -1.794184,-4.472009 -1.609811,-7.198545 z"
     id="path45"
     style="stroke-width:1.01577" />
  <path
     fill="#dbb474"
     d="m 36.122478,22.153556 c 0.596494,0.877057 0.122295,2.465938 1.526387,2.68839 0.69294,0.109803 0.837462,-0.02698 1.372564,0.500965 0.189758,0.709506 0.291198,1.406051 0.37648,2.137898 l 0.141781,1.485506 -0.09968,4.182958 -0.771467,0.138044 c -0.313523,-1.25494 -0.271713,-2.507562 -0.264271,-3.796644 -0.671399,-0.671465 -1.236659,-1.481186 -1.820229,-2.239903 -0.02027,-0.598334 -0.449525,-1.308156 -0.6948,-1.845265 0.04269,-1.092238 0.09821,-2.167825 0.233232,-3.251949 z"
     id="path46"
     style="stroke-width:1.01577" />
  <path
     fill="#b27f37"
     d="m 39.360409,14.268688 0.206207,-0.886225 c 0.717223,-0.582842 1.978458,-0.514452 2.849211,-0.593064 0.04631,2.673848 1.305101,11.548 3.110936,13.400325 0.364046,0.373352 0.505728,0.44817 1.006168,0.441953 -0.05258,0.619619 -0.0068,1.090867 0.147264,1.690149 q -1.570743,1.749371 -3.208166,3.426348 l -0.08587,0.283571 c -1.375501,0.921526 -2.320179,1.227964 -3.946146,1.117528 l 0.09968,-4.182958 -0.14178,-1.485506 C 39.312633,26.748962 39.211191,26.052417 39.021432,25.342911 38.48633,24.81497 38.341808,24.951749 37.648868,24.841946 36.244776,24.619494 36.718975,23.030613 36.122481,22.153556 36.0183,20.267616 35.767443,18.559131 35.016342,16.837474 l -0.05532,-0.368821 c 0.847646,-0.139309 1.737491,-0.457443 2.57182,-0.687166 q 0.184177,-0.02656 0.3615,-0.08609 c 0.734358,-0.239733 1.114559,-0.723838 1.466072,-1.426705 z"
     id="path47"
     style="stroke-width:1.01577" />
  <path
     fill="#956928"
     d="m 39.53969,28.966315 c 0.796141,-1.820291 2.451384,-3.449426 3.764906,-4.876448 0.07285,0.952086 0.153138,1.961602 0.07187,2.915689 -0.09233,1.083807 -0.734945,3.165539 -0.589543,4.117519 0.01224,0.08009 0.242632,0.352698 0.299521,0.43542 l 0.385586,0.189679 -0.08588,0.283571 c -1.3755,0.921526 -2.320179,1.227964 -3.946145,1.117528 z"
     id="path48"
     style="stroke-width:1.01577" />
  <path
     fill="#dea959"
     d="m 37.532837,15.781487 q 0.184177,-0.02656 0.361499,-0.08609 c 0.734358,-0.239733 1.11456,-0.723838 1.466073,-1.426705 0.305297,4.357147 0.111426,8.844541 0.0375,13.212121 -0.08528,-0.731847 -0.186722,-1.428392 -0.37648,-2.137898 -0.535103,-0.527941 -0.679624,-0.391162 -1.372564,-0.500965 -1.404092,-0.222452 -0.929893,-1.811333 -1.526387,-2.68839 -0.104181,-1.88594 -0.355038,-3.594425 -1.10614,-5.316082 l -0.05532,-0.368821 c 0.847645,-0.139309 1.737491,-0.457443 2.57182,-0.687166 z"
     id="path49"
     style="stroke-width:1.01577" />
  <path
     fill="#61d705"
     d="m 54.603034,24.658062 c 0.996769,-0.0588 2.248409,-0.307069 3.145794,0.250588 0.409674,0.475042 0.526095,0.775789 0.569274,1.42091 -0.666601,0.473145 -1.733574,0.990126 -2.011944,1.787096 -0.634583,0.4272 -1.222266,0.81794 -1.945168,1.056409 -0.766473,0.343531 -1.12719,0.822893 -1.611671,1.512167 -0.902476,0.98844 -0.767061,2.888291 -0.767746,4.183169 l -0.321845,0.456917 c -0.933026,-0.04647 -2.840789,-0.280305 -3.60834,0.356386 l 0.25585,0.61414 c -0.584255,0.301485 -1.186136,0.670833 -1.794967,0.902874 l -2.140702,0.198426 c -1.090962,0.05743 -2.183002,0.104534 -3.27083,0.212651 -1.586703,-0.384206 -3.413295,-0.08873 -5.019777,0.07524 -0.192011,0.01897 -0.392833,0.03572 -0.585724,0.02002 -0.687946,-0.05606 -0.896798,-0.306649 -1.325564,-0.832166 l 0.426318,-1.598787 c 1.183491,-0.342477 2.51689,-0.101795 3.597865,-0.824789 l 0.474689,-1.161998 0.771467,-0.138044 c 1.625966,0.110436 2.570645,-0.196002 3.946145,-1.117528 l 0.08588,-0.283571 q 1.63752,-1.676977 3.208165,-3.426348 c 0.469793,-0.529206 1.28405,-0.965995 1.859492,-1.376862 l 1.308822,-0.317502 c 0.975521,-0.105588 2.268382,-0.999716 3.178398,-1.456422 z"
     id="path50"
     style="stroke-width:1.01577" />
  <path
     fill="#45ae01"
     d="m 43.386158,32.031745 c -0.80936,2.207447 -3.604522,2.977967 -3.786642,4.161567 0.466268,0.532472 1.096739,0.567457 1.73798,0.588427 1.518848,0.04974 3.344756,-0.0046 4.830998,-0.323192 0.68354,-0.146475 1.23989,-0.876741 1.882894,-0.776843 l 0.25585,0.61414 c -0.584255,0.301485 -1.186136,0.670833 -1.794967,0.902874 l -2.140702,0.198426 c -1.090962,0.05743 -2.183002,0.104534 -3.27083,0.212651 -1.586703,-0.384206 -3.413295,-0.08873 -5.019777,0.07524 -0.192011,0.01897 -0.392833,0.03572 -0.585724,0.02002 -0.687946,-0.05606 -0.896798,-0.306649 -1.325564,-0.832166 l 0.426318,-1.598787 c 1.183491,-0.342477 2.51689,-0.101795 3.597865,-0.824789 l 0.474689,-1.161998 0.771467,-0.138044 c 1.625966,0.110436 2.570645,-0.196002 3.946145,-1.117528 z"
     id="path51"
     style="stroke-width:1.01577" />
  <path
     fill="#dea959"
     d="m 51.781436,6.7199734 c 0.270146,1.6728672 0.590717,3.3542696 0.783119,5.0390446 -0.101243,0.612454 0.790365,6.831516 0.905023,8.120809 1.078429,1.860228 1.56193,2.593655 1.133456,4.778235 l -1.576127,0.512978 c -0.910017,0.456706 -2.202878,1.350834 -3.178399,1.456422 l -1.308822,0.317502 c -0.575442,0.410867 -1.389698,0.847656 -1.859491,1.376862 -0.15402,-0.599282 -0.199844,-1.07053 -0.147264,-1.690149 -0.50044,0.0062 -0.642122,-0.0686 -1.006168,-0.441953 C 43.720928,24.337399 42.46214,15.463247 42.415827,12.789399 l 0.590718,-0.338367 c 1.321648,-0.387157 2.754135,-0.282517 3.742092,-1.458951 0.700381,-0.191682 1.415254,-0.334363 2.108194,-0.555655 1.570645,-0.5017024 2.206207,-2.2845837 2.924605,-3.7164526 z"
     id="path52"
     style="stroke-width:1.01577" />
  <path
     fill="#956928"
     d="m 46.532931,26.631677 c -0.08724,-4.206352 -0.08029,-8.735054 0.249388,-12.924756 0.349162,2.418202 0.315481,5.030614 1.01077,7.361985 0.256242,2.07973 -0.505433,4.031426 0.746597,5.876058 -0.575442,0.410867 -1.389698,0.847656 -1.859491,1.376862 -0.15402,-0.599282 -0.199844,-1.07053 -0.147264,-1.690149 z"
     id="path53"
     style="stroke-width:1.01577" />
  <path
     fill="#dc964f"
     d="m 47.793089,21.068906 c 0.01038,-0.01633 0.02105,-0.03256 0.03114,-0.049 0.06159,-0.100741 0.11407,-0.206329 0.166846,-0.31255 0.53001,-1.066525 -0.116616,-3.820776 0.929697,-4.342184 0.991383,1.217637 -0.250758,4.159881 0.970332,5.091629 -0.409086,0.317818 -0.527857,0.366713 -0.616665,0.930377 -0.230098,1.461059 0.468128,2.82106 0.574072,4.240284 l -1.308822,0.317502 c -1.25203,-1.844632 -0.490355,-3.796328 -0.746597,-5.876058 z"
     id="path54"
     style="stroke-width:1.01577" />
  <path
     fill="#b27f37"
     d="m 50.846158,11.630985 c 0.309703,2.395229 0.429844,6.239504 1.821795,8.184456 l 0.801625,0.06439 c 1.078429,1.860228 1.56193,2.593655 1.133456,4.778235 l -1.576127,0.512978 c -0.910017,0.456706 -2.202878,1.350834 -3.178399,1.456422 -0.105944,-1.419224 -0.80417,-2.779225 -0.574072,-4.240284 0.08881,-0.563664 0.207579,-0.612559 0.616665,-0.930377 0.03927,-0.0784 0.06981,-0.157856 0.10046,-0.240366 0.721042,-1.941475 0.489768,-7.130577 0.854597,-9.58545 z"
     id="path55"
     style="stroke-width:1.01577" />
  <path
     fill="#dc964f"
     d="m 52.667953,19.815441 0.801625,0.06439 c 1.078429,1.860228 1.56193,2.593655 1.133456,4.778235 l -1.576127,0.512978 c -0.01116,-0.02582 -0.02252,-0.05153 -0.03339,-0.07756 -0.522667,-1.248617 -0.76618,-4.048497 -0.325565,-5.278041 z"
     id="path56"
     style="stroke-width:1.01577" />
  <path
     fill="#dedfad"
     d="m 58.318102,26.32956 c 0.586704,0.22909 0.812103,0.273033 1.098502,0.911726 0.468031,1.043869 0.24508,3.316755 -0.122785,4.381278 q -0.02017,0.05764 -0.0423,0.114546 c -0.746891,0.192103 -1.643003,-0.02213 -2.273278,0.194105 0.223734,-0.910988 0.399197,-2.148752 0.149025,-3.061215 -0.127876,-0.46619 -0.441985,-0.532683 -0.82111,-0.753344 0.278371,-0.79697 1.345344,-1.313951 2.011946,-1.787096 z"
     id="path59"
     style="stroke-width:1.01577" />
  <path
     fill="#74877f"
     d="m 24.998228,18.184936 c 1.073436,0.320453 2.564574,0.950821 3.675902,0.570935 0.446588,-0.0176 1.007442,-0.105483 1.441888,-0.02708 l -1.142857,0.171554 c -0.873005,1.50047 0.151277,18.257805 -0.835014,22.271316 -0.38402,-2.856467 -0.771467,-5.722628 -1.081464,-8.589633 -0.210712,-1.94864 -0.238618,-4.030899 -0.720454,-5.925691 -0.351219,2.652983 -0.31127,5.319244 -0.594145,7.972016 -0.176638,1.656534 -0.970919,3.966091 -0.849113,5.578156 0.09684,1.281917 2.15343,6.134443 2.937333,7.289802 0.09615,0.141733 0.219524,0.263338 0.349946,0.367767 1.513757,-0.202324 3.167628,-1.294562 4.549005,-1.988789 -0.05239,0.653657 -0.02781,1.501945 -0.211496,2.118087 0.05121,2.880388 -1.176245,5.524519 -1.68726,8.317127 -0.383825,2.096801 -0.230393,4.366421 -0.06854,6.483349 Q 29.191705,63.40683 27.61499,64 L 26.596876,63.072678 C 25.327711,62.325025 23.12356,62.630409 21.642996,62.424607 22.297064,55.753898 21.825802,48.624375 21.59453,41.925846 21.091054,38.035099 19.550861,29.596472 21.123758,26.19436 c 0.0073,-0.104218 0.02408,-0.202851 0.04406,-0.304751 0.214139,-1.093924 2.015764,-2.19554 2.588367,-3.217279 0.452953,-0.808035 0.08372,-1.560219 0.685695,-2.379423 0.05767,-0.823631 0.138157,-1.404682 0.556349,-2.107971 z"
     id="path60"
     style="stroke-width:1.01577" />
  <path
     fill="#5d786a"
     d="m 21.123756,26.19436 c 0.0073,-0.104218 0.02408,-0.202851 0.04406,-0.304751 0.21414,-1.093924 2.015764,-2.19554 2.588367,-3.217279 0.452953,-0.808035 0.08372,-1.560219 0.685695,-2.379423 0.07295,2.055071 -0.51454,11.979204 -0.854597,13.704549 -0.638793,3.240779 -2.023988,4.197817 -1.992754,7.92839 C 21.091052,38.035099 19.55086,29.596472 21.123756,26.19436 Z"
     id="path61"
     style="stroke-width:1.01577" />
  <path
     fill="#5d786a"
     d="m 26.596876,63.072678 c 1.355038,-3.811397 0.498679,-6.925617 1.157545,-10.157333 0.513855,-2.520102 2.919611,-3.640897 4.763338,-4.921971 0.05121,2.880388 -1.176245,5.524519 -1.68726,8.317127 -0.383825,2.096801 -0.230393,4.366421 -0.06854,6.483349 Q 29.191705,63.40683 27.61499,64 Z"
     id="path62"
     style="stroke-width:1.01577" />
  <path
     fill="#5d786a"
     d="m 48.307238,36.295844 c 1.442181,1.354311 3.143346,9.063094 3.274746,11.131337 0.07129,1.121849 0.02399,2.293435 0.156663,3.403587 l -0.07353,1.208258 c -0.590424,0.554496 -1.103201,0.863357 -1.841769,1.143661 -0.288359,0.251536 -0.678351,0.69349 -1.029473,0.806981 -0.388132,0.132354 -0.949279,0.252274 -1.292274,0.474093 -0.572603,0.428149 -1.130617,0.865676 -1.775187,1.162524 -0.513268,0.548595 -1.170274,0.846498 -1.813865,1.177277 -1.336237,0.930589 -2.699695,1.660328 -4.139331,2.377421 -2.216977,1.090025 -4.574657,1.958335 -6.862721,2.866373 -0.721629,0.347745 -1.363164,0.59749 -2.148535,0.746494 -0.161852,-2.116928 -0.315285,-4.386548 0.06854,-6.483349 0.511015,-2.792608 1.73847,-5.436739 1.687261,-8.317127 0.183688,-0.616142 0.159111,-1.46443 0.211495,-2.118087 l 0.822089,-0.367135 c -0.445119,-2.402711 -0.592382,-6.526553 0.61833,-8.635261 0.428766,0.525517 0.637618,0.776105 1.325565,0.832166 0.192891,0.0157 0.393713,-0.0011 0.585724,-0.02002 1.606481,-0.163967 3.433073,-0.459446 5.019776,-0.07524 1.087829,-0.108117 2.179868,-0.155221 3.27083,-0.212651 l 2.140702,-0.198426 c 0.608832,-0.232041 1.210712,-0.601389 1.794967,-0.902874 z"
     id="path63"
     style="stroke-width:1.01577" />
  <path
     fill="#3a7550"
     d="m 33.551344,45.508152 c -0.445119,-2.402711 -0.592382,-6.526553 0.61833,-8.635261 0.428766,0.525517 0.637618,0.776105 1.325564,0.832166 0.192891,0.0157 0.393713,-0.0011 0.585724,-0.02002 -0.361108,0.938702 -0.469891,1.256415 -0.09184,2.236531 q 0.227553,0.577258 0.475081,1.144821 c -0.589054,1.690465 -1.240674,3.341414 -1.911975,4.995313 z"
     id="path64"
     style="stroke-width:1.01577" />
  <path
     fill="#74877f"
     d="m 39.423465,51.439744 c 0.342603,-0.726999 0.328796,-0.860196 1.032312,-1.13776 0.582688,1.703005 1.529618,5.670888 3.099382,6.394936 0.114951,0.053 0.234505,0.08399 0.357387,0.106642 -1.336238,0.930589 -2.699695,1.660328 -4.139331,2.377421 -0.840497,-1.105093 -0.371584,-6.1238 -0.34975,-7.741239 z"
     id="path65"
     style="stroke-width:1.01577" />
  <path
     fill="#74877f"
     d="m 41.151067,37.78135 c 0.275237,0.02213 0.857828,-0.02708 1.028786,0.198426 1.067659,1.40837 -0.456281,4.490028 0.667875,6.154254 -1.030549,1.298145 -0.105455,4.599937 -2.391951,6.167954 -0.703516,0.277564 -0.689709,0.410761 -1.032312,1.13776 -0.143347,-1.02469 -0.136492,-2.093112 -0.177714,-3.12813 0.811123,-1.325859 1.748653,-2.465411 2.802407,-3.570399 -0.779594,-1.504579 -1.417311,-2.946881 -1.393517,-4.717222 0.01,-0.745019 -0.03211,-1.687515 0.496426,-2.242643 z"
     id="path66"
     style="stroke-width:1.01577" />
  <path
     fill="#3a7550"
     d="m 33.551344,45.508152 1.00088,0.553548 c 0.03956,1.211946 0.184667,2.647187 -0.01998,3.835845 -0.722902,4.197922 -3.101536,7.607304 -1.621756,12.149811 -0.721629,0.347745 -1.363164,0.59749 -2.148535,0.746494 -0.161852,-2.116928 -0.315285,-4.386548 0.06854,-6.483349 0.511016,-2.792608 1.73847,-5.436739 1.687261,-8.317127 0.183688,-0.616142 0.159111,-1.46443 0.211495,-2.118087 z"
     id="path67"
     style="stroke-width:1.01577" />
  <path
     fill="#9ca9a0"
     d="m 42.847728,44.13403 c 1.225986,3.222865 0.265837,2.25276 2.442865,5.38795 0.221189,2.005544 0.134241,4.136276 0.435817,6.104305 -0.513267,0.548595 -1.170273,0.846498 -1.813864,1.177277 -0.122882,-0.02266 -0.242436,-0.05364 -0.357387,-0.106642 -1.569764,-0.724048 -2.516694,-4.691931 -3.099382,-6.394936 2.286496,-1.568017 1.361402,-4.869809 2.391951,-6.167954 z"
     id="path68"
     style="stroke-width:1.01577" />
  <path
     fill="#74877f"
     d="m 48.307238,36.295844 c 1.442181,1.354311 3.143346,9.063094 3.274746,11.131337 0.07129,1.121849 0.02399,2.293435 0.156663,3.403587 l -0.07353,1.208258 c -0.590424,0.554496 -1.103201,0.863357 -1.841769,1.143661 -0.288359,0.251536 -0.678351,0.69349 -1.029473,0.806981 -0.388132,0.132354 -0.949279,0.252274 -1.292274,0.474093 -0.572603,0.428149 -1.130617,0.865676 -1.775187,1.162524 C 45.424839,53.658256 45.511787,51.527524 45.290598,49.52198 43.11357,46.38679 44.073719,47.356895 42.847733,44.13403 41.723577,42.469804 43.247517,39.388146 42.179858,37.979776 42.0089,37.754268 41.426309,37.803479 41.151072,37.78135 l -0.05032,-0.171555 c 1.087828,-0.108117 2.179867,-0.155221 3.27083,-0.212651 l 2.140701,-0.198426 c 0.608832,-0.232041 1.210713,-0.601389 1.794967,-0.902874 z"
     id="path69"
     style="stroke-width:1.01577" />
  <path
     fill="#9ca9a0"
     d="m 46.782613,37.256254 c 0.571428,0.259966 0.836385,0.305173 1.090668,0.958935 0.547145,1.406368 0.445216,3.402638 0.722902,4.939252 0.426613,2.361404 1.354939,4.726074 1.607265,7.105919 0.08567,0.808561 0.07785,1.824505 -0.222657,2.580167 q -0.06991,0.175769 -0.157447,0.34216 c -0.288358,0.251536 -0.67835,0.69349 -1.029472,0.806981 0.01899,-0.09252 -1.547733,-10.200644 -1.671007,-10.482107 q -0.196416,-0.394638 -0.322236,-0.821312 c -0.393615,-1.321012 -0.594536,-4.212042 -0.01802,-5.429995 z"
     id="path70"
     style="stroke-width:1.01577" />
  <path
     fill="#5d786a"
     d="m 48.307238,36.295844 c 1.442181,1.354311 3.143346,9.063094 3.274746,11.131337 0.07129,1.121849 0.02399,2.293435 0.156663,3.403587 l -0.07353,1.208258 c -0.590424,0.554496 -1.103201,0.863357 -1.841769,1.143661 q 0.08754,-0.166391 0.157446,-0.34216 c 0.300501,-0.755662 0.308334,-1.771606 0.222659,-2.580167 -0.252326,-2.379845 -1.180652,-4.744515 -1.607265,-7.105919 -0.277686,-1.536614 -0.175757,-3.532884 -0.722902,-4.939252 -0.254283,-0.653762 -0.51924,-0.698969 -1.090668,-0.958935 l -0.270342,-0.05754 c 0.608831,-0.232041 1.210712,-0.601389 1.794967,-0.902874 z"
     id="path71"
     style="stroke-width:1.01577" />
  <path
     fill="#5d786a"
     d="m 41.100739,37.609795 c 1.087828,-0.108117 2.179868,-0.155221 3.27083,-0.212651 -0.264271,1.679822 -0.160776,3.698854 -0.04563,5.398592 0.768628,1.181598 2.061588,3.395052 2.120043,4.856532 -0.165966,2.113028 -0.411339,4.936828 0.959658,6.695262 q 0.04651,0.05954 0.09596,0.116231 C 46.929001,54.89191 46.370987,55.329437 45.726416,55.626285 45.42484,53.658256 45.511788,51.527524 45.290599,49.52198 43.113571,46.38679 44.07372,47.356895 42.847734,44.13403 41.723578,42.469804 43.247518,39.388146 42.179859,37.979776 42.008901,37.754268 41.42631,37.803479 41.151073,37.78135 Z"
     id="path72"
     style="stroke-width:1.01577" />
  <path
     fill="#5d786a"
     d="m 54.421502,35.994781 c 0.866444,0.937859 1.56242,9.167206 2.720453,11.581299 0.0848,0.78875 0.07951,1.290979 0.709487,1.809647 0.07657,0.06312 0.159013,0.117285 0.242632,0.168814 l -0.01586,0.152903 -1.93939,0.30138 C 53.722491,46.219766 53.775462,40.39998 54.421502,35.994781 Z"
     id="path74"
     style="stroke-width:1.01577" />
  <path
     fill="#afb8a2"
     d="m 51.981573,34.868401 c -0.02007,1.055671 -0.06883,2.155812 0.07432,3.202526 0.272104,1.988368 2.715949,12.166144 1.698912,13.238571 -0.225594,0.237942 -0.495251,0.436895 -0.755899,0.627628 l -1.333789,0.1019 0.07353,-1.208258 c -0.132674,-1.110152 -0.08538,-2.281738 -0.156664,-3.403587 -0.1314,-2.068243 -1.832565,-9.777026 -3.274746,-11.131337 l -0.25585,-0.61414 c 0.767551,-0.636691 2.675314,-0.402858 3.60834,-0.356386 z"
     id="path75"
     style="stroke-width:1.01577" />
  <path
     fill="#9ca9a0"
     d="m 48.051388,35.681704 c 0.767551,-0.636691 2.675314,-0.402858 3.60834,-0.356386 -0.196024,0.07229 -1.198765,0.341739 -1.229511,0.410023 -0.190933,0.424461 -0.217761,0.91552 -0.143444,1.374755 0.159306,0.983277 0.575541,1.999221 0.860765,2.954362 0.815334,2.730119 1.01831,4.959485 0.884265,7.816057 -0.04376,0.934171 0.0046,2.068033 -0.293156,2.950253 -0.132673,-1.110152 -0.08538,-2.281738 -0.156663,-3.403587 -0.1314,-2.068243 -1.832565,-9.777026 -3.274746,-11.131337 z"
     id="path76"
     style="stroke-width:1.01577" />
  <path
     fill="#afb8a2"
     d="m 54.36099,29.173065 c 0.722902,-0.238469 1.310585,-0.629209 1.945168,-1.056409 0.379125,0.220661 0.693233,0.287154 0.821109,0.753344 0.250172,0.912463 0.07471,2.150227 -0.149025,3.061215 l 0.30706,2.16087 c -0.208852,0.849237 0.929109,7.312669 1.011847,9.056139 l 0.278566,0.229091 c -0.897777,1.265583 -0.524821,2.803883 -1.43376,4.198765 -1.158033,-2.414093 -1.854009,-10.64344 -2.720453,-11.581299 0.12719,-0.643541 -1.325271,-4.546933 -1.672183,-5.309549 0.484481,-0.689274 0.845198,-1.168636 1.611671,-1.512167 z"
     id="path77"
     style="stroke-width:1.01577" />
  <path
     fill="#dbd6b3"
     d="m 54.36099,29.173065 c 0.722902,-0.238469 1.310585,-0.629209 1.945168,-1.056409 0.379125,0.220661 0.693233,0.287154 0.821109,0.753344 0.250172,0.912463 0.07471,2.150227 -0.149025,3.061215 l 0.30706,2.16087 c -0.208852,0.849237 0.929109,7.312669 1.011847,9.056139 L 57.835777,42.992582 C 57.098579,42.025638 54.815901,31.125815 54.36099,29.173065 Z"
     id="path78"
     style="stroke-width:1.01577" />
  <path
     fill="#afb8a2"
     d="m 56.978242,31.931215 c 0.630275,-0.216235 1.526387,-0.002 2.273278,-0.194105 l 0.437873,0.271768 c 0.219035,0.952296 0.295604,1.819869 0.319299,2.796612 0.0074,3.412123 0.786449,3.332247 1.226084,5.784485 1.442867,2.676693 3.285812,4.379382 2.627925,7.746614 l -0.143347,0.402015 0.07334,0.243527 c -1.405562,0.86673 -3.760696,0.59043 -5.456671,0.869786 l -0.257809,-0.144473 0.01586,-0.152903 c -0.08362,-0.05153 -0.166063,-0.105693 -0.242632,-0.168814 -0.629981,-0.518668 -0.624693,-1.020897 -0.709487,-1.809647 0.908939,-1.394882 0.535983,-2.933182 1.43376,-4.198765 l -0.278567,-0.229091 c -0.08273,-1.74347 -1.220698,-8.206902 -1.011846,-9.056139 z"
     id="path79"
     style="stroke-width:1.01577" />
  <path
     fill="#babfb6"
     d="m 57.141955,47.57608 c 0.908939,-1.394882 0.535983,-2.933182 1.43376,-4.198765 0.634289,1.574655 0.488985,4.044387 0.346323,5.733693 -0.316459,0.302433 -0.4131,0.341001 -0.827964,0.443533 -0.08362,-0.05153 -0.166063,-0.105693 -0.242632,-0.168814 -0.629981,-0.518668 -0.624693,-1.020897 -0.709487,-1.809647 z"
     id="path80"
     style="stroke-width:1.01577" />
  <path
     fill="#dbd6b3"
     d="m 56.978242,31.931215 c 0.630275,-0.216235 1.526387,-0.002 2.273278,-0.194105 l 0.437873,0.271768 c 0.219035,0.952296 0.295604,1.819869 0.319299,2.796612 0.0074,3.412123 0.786449,3.332247 1.226084,5.784485 1.442867,2.676693 3.285812,4.379382 2.627925,7.746614 -0.237834,-0.08198 -0.360423,-0.247321 -0.523059,-0.441321 -0.363556,-0.433628 -0.324685,-2.171303 -0.616371,-2.902517 -0.694116,-1.739992 -1.952609,-3.448266 -2.909918,-5.05875 -1.162831,-1.831671 -1.423871,-4.110353 -2.528051,-5.841916 z"
     id="path81"
     style="stroke-width:1.01577" />
  <path
     style="fill:#ffffff;stroke-width:1.01577"
     d="M 44.780349,58.520568 57.39595,49.570256 c 0,0 -13.743252,14.03227 -12.615601,8.950312 z"
     id="path86" />
</svg>
