<?xml version="1.0" encoding="UTF-8" standalone="no"?>
<!-- Created with Inkscape (http://www.inkscape.org/) -->

<svg
   width="46.795998mm"
   height="46.796001mm"
   viewBox="0 0 46.795997 46.796002"
   version="1.1"
   id="svg1917"
   xml:space="preserve"
   xmlns="http://www.w3.org/2000/svg"
   xmlns:svg="http://www.w3.org/2000/svg"><defs
     id="defs1914" /><g
     id="layer1"
     transform="translate(-69.080864,-99.262238)"><g
       style="clip-rule:evenodd;fill-rule:evenodd;stroke-linejoin:round;stroke-miterlimit:2"
       id="g1947"
       transform="matrix(0.26458333,0,0,0.26458333,68.533358,103.15109)"><g
         transform="matrix(0.281,0,0,0.281,-41.8,-43.7)"
         id="g1933">
        <g
   transform="matrix(21.6,0,0,21.6,-4857,7665)"
   id="g1925">
            <path
   d="m 243,-334 c 0.106,-1.89 1.03,-3.56 2.43,-4.74 1.37,-1.16 3.21,-1.87 5.23,-1.87 2.01,0 3.85,0.709 5.22,1.87 1.4,1.18 2.32,2.85 2.43,4.74 0.106,1.94 -0.675,3.75 -2.04,5.09 -1.4,1.36 -3.38,2.22 -5.61,2.22 -2.23,0 -4.22,-0.854 -5.61,-2.22 -1.37,-1.34 -2.15,-3.14 -2.04,-5.08 z"
   style="fill:#ffffff;fill-rule:nonzero"
   id="path1923" />
        </g>
        <g
   transform="matrix(11.1,0,0,11.1,-2215,4153)"
   id="g1931">
            <path
   d="m 243,-334 c 0.106,-1.89 1.03,-3.56 2.43,-4.74 1.37,-1.16 3.21,-1.87 5.23,-1.87 2.01,0 3.85,0.709 5.22,1.87 1.4,1.18 2.32,2.85 2.43,4.74 0.106,1.94 -0.675,3.75 -2.04,5.09 -1.4,1.36 -3.38,2.22 -5.61,2.22 -2.23,0 -4.22,-0.854 -5.61,-2.22 -1.37,-1.34 -2.15,-3.14 -2.04,-5.08 z"
   style="fill:#265787;fill-rule:nonzero"
   id="path1927" />
            <path
   d="m 231,-330 c 0.013,0.74 0.249,2.18 0.603,3.3 0.744,2.38 2.01,4.58 3.76,6.51 1.8,1.99 4.02,3.59 6.58,4.73 2.69,1.19 5.61,1.8 8.64,1.8 3.03,-0.004 5.95,-0.624 8.64,-1.83 2.56,-1.15 4.78,-2.75 6.58,-4.75 1.76,-1.95 3.02,-4.15 3.76,-6.53 0.375,-1.2 0.612,-2.42 0.707,-3.64 0.093,-1.2 0.054,-2.41 -0.117,-3.62 -0.334,-2.35 -1.15,-4.56 -2.4,-6.56 -1.14,-1.85 -2.62,-3.46 -4.38,-4.82 l 0.004,-0.003 -17.7,-13.6 c -0.016,-0.012 -0.029,-0.025 -0.046,-0.036 -1.16,-0.892 -3.12,-0.889 -4.39,0.005 -1.29,0.904 -1.44,2.4 -0.29,3.34 l -0.005,0.005 7.39,6.01 -22.5,0.024 h -0.03 c -1.86,0.002 -3.65,1.22 -4,2.77 -0.364,1.57 0.9,2.88 2.84,2.88 l -0.003,0.007 11.4,-0.022 -20.4,15.6 c -0.026,0.019 -0.054,0.039 -0.078,0.058 -1.92,1.47 -2.54,3.92 -1.33,5.46 1.23,1.57 3.84,1.58 5.78,0.009 l 11.1,-9.1 c 0,0 -0.162,1.23 -0.149,1.96 z m 28.6,4.11 c -2.29,2.33 -5.5,3.66 -8.96,3.66 -3.47,0.006 -6.68,-1.3 -8.97,-3.63 -1.12,-1.14 -1.94,-2.44 -2.45,-3.83 -0.497,-1.37 -0.69,-2.82 -0.562,-4.28 0.121,-1.43 0.547,-2.8 1.23,-4.03 0.668,-1.21 1.59,-2.31 2.72,-3.24 2.23,-1.81 5.06,-2.8 8.02,-2.8 2.97,-0.004 5.8,0.969 8.03,2.78 1.13,0.924 2.05,2.02 2.72,3.23 0.683,1.23 1.11,2.59 1.23,4.03 0.126,1.46 -0.067,2.91 -0.564,4.28 -0.508,1.4 -1.33,2.7 -2.45,3.84 z"
   style="fill:#ea7600;fill-rule:nonzero"
   id="path1929" />
        </g>
    </g></g></g></svg>
