<?xml version="1.0" encoding="UTF-8" standalone="no"?>
<svg
   width="256"
   height="256"
   version="1.1"
   id="svg39"
   xmlns="http://www.w3.org/2000/svg"
   xmlns:svg="http://www.w3.org/2000/svg">
  <defs
     id="defs39" />
  <path
     fill="#1b232c"
     d="m 78.157649,28.54425 c 2.41281,-1.39069 4.97451,-2.51303 7.453,-3.75546 L 118.21924,8.5896704 c 3.54008,-1.7587 7.07797,-3.48677 10.67779,-5.0884 7.20246,-3.20468002 9.49954,-1.09382 16.79052,0.81526 l 31.53793,8.5765596 c 5.62697,1.48296 7.57967,2.72961 12.72089,5.74976 l 33.7246,20.0789 c 1.88608,1.10226 11.98022,6.26145 12.55543,7.88597 5.65919,15.98325 10.22207,35.50925 14.71583,52.04927 1.04563,3.84843 4.9379,16.44493 5.0577,19.62144 0.0382,1.00507 -15.54626,41.33648 -16.76549,42.68561 l -13.22354,14.83344 c -7.10018,8.04515 -5.30418,5.55536 -8.73447,16.19278 -3.26389,10.12116 -6.12899,20.50361 -10.77976,29.95354 -11.44693,22.80992 -37.53836,40.82479 -60.61582,31.58334 -9.50079,-3.80476 -22.39153,-16.57206 -30.47572,-18.91218 -2.39811,-0.69411 -5.67702,-0.38562 -8.22026,-0.5374 l -22.393711,-1.1389 c -7.67633,-0.42365 -7.87901,-0.24475 -15.35422,-2.81025 l -14.90912,-5.10284 c -3.28829,-1.1315 -17.73763,-5.03733 -19.52487,-6.72207 -2.06343,-1.94535 -4.92727,-6.28505 -6.86559,-8.68011 -3.71931,-4.59536 -19.6606148,-23.12721 -21.3121108,-26.57911 -0.758499,-1.58544 -6.61971198,-27.65532 -6.76940998,-29.83979 -0.276,-4.02768 11.06580078,-38.58926 13.80328078,-47.75781 3.48972,-11.68792 6.78051,-14.52389 13.75871,-23.43641 20.724438,-27.780895 14.880698,-22.811853 50.53982,-53.46602 z"
     id="path1"
     style="stroke-width:0.331889" />
  <path
     fill="#83a2a3"
     d="m 19.061639,105.50972 c 2.6621,2.81659 7.25157,10.81315 9.74758,14.39781 -4.21788,3.41527 -8.55212,6.68757 -12.8041,10.05494 -1.92518,1.46394 -3.72868,3.24096 -5.735189,4.5517 1.787239,-6.92774 5.922239,-22.5708 8.791709,-29.00445 z"
     id="path2"
     style="stroke-width:0.331889" />
  <path
     fill="#e26b8f"
     d="m 69.831989,142.84986 c 0.974,1.33012 3.33583,10.35393 3.63767,12.10136 0.72753,4.21679 0.34812,11.13538 0.32873,15.61841 -3.62797,-0.10917 -7.22592,0.5212 -10.83356,0.86949 -1.31244,0.18207 -2.60298,0.45112 -3.90134,0.72862 1.26489,-5.41908 8.43607,-24.37493 10.7685,-29.31788 z"
     id="path3"
     style="stroke-width:0.331889" />
  <path
     fill="#951737"
     d="m 240.89313,79.81348 c 0.68343,1.07973 1.87826,6.78582 2.33836,8.46035 l 6.74736,24.33795 c -3.06558,-1.58156 -5.99105,-3.48324 -9.08572,-5.04015 -4.26887,-1.97845 -8.696,-4.95211 -13.20446,-6.03853 1.51669,-4.35273 9.87081,-16.83266 13.20446,-21.71962 z"
     id="path4"
     style="stroke-width:0.331889" />
  <path
     fill="#da4f3a"
     d="m 199.17879,120.26145 c 3.72619,1.01247 7.47333,2.18059 11.23424,3.00465 -1.58112,5.95789 -9.12201,25.52509 -11.97897,30.96671 -3.1685,-1.45478 -6.50496,-2.50634 -9.6356,-4.03895 2.56263,-2.8895 7.70604,-23.59947 10.38033,-29.93241 z"
     id="path5"
     style="stroke-width:0.331889" />
  <path
     fill="#53715a"
     d="m 204.53458,167.68894 c 3.70867,4.39287 7.27252,8.98261 11.01967,13.3209 -2.3096,6.56572 -3.79438,13.53008 -6.22064,20.01551 -4.1547,-5.43035 -11.71842,-11.55199 -14.88691,-16.26252 1.29242,-0.86949 7.89965,-13.40823 10.08788,-17.07389 z"
     id="path6"
     style="stroke-width:0.331889" />
  <path
     fill="#9886b5"
     d="m 97.234609,61.81762 c 0.7904,0.82688 3.112821,31.69427 3.817211,36.1044 -3.623911,1.80413 -7.554971,3.1832 -11.283031,4.73483 -0.39192,0.17925 -0.70408,0.29335 -1.12821,0.35815 -0.69,-0.64904 -2.32179,-13.65334 -2.61018,-15.52156 2.31272,-7.32604 7.87964,-18.516 11.20421,-25.67582 z"
     id="path7"
     style="stroke-width:0.331889" />
  <path
     fill="#6f9f8b"
     d="m 171.92662,149.38987 c 6.02045,2.4669 12.1044,4.77744 18.14612,7.18447 9.32313,3.7139 7.7589,2.82751 14.46184,11.1146 -2.18823,3.66566 -8.79546,16.2044 -10.08788,17.07389 -9.46764,-10.09262 -15.04644,-23.50262 -22.52008,-35.37296 z"
     id="path8"
     style="stroke-width:0.331889" />
  <path
     fill="#29829b"
     d="m 183.38168,20.82062 c 6.65165,3.2318 12.90825,7.70673 19.30748,11.53121 l 16.72014,9.80773 c 2.1263,1.26989 4.31172,2.4514 6.37921,3.83786 -4.37959,0.48247 -27.06388,6.05861 -28.49017,5.48317 -0.16609,-1.67875 -11.86199,-25.66666 -13.91666,-30.65997 z"
     id="path9"
     style="stroke-width:0.331889" />
  <path
     fill="#e26b8f"
     d="m 73.470909,175.77529 c 0.42788,-0.0334 0.88205,-0.001 1.31275,0 4.35238,4.17489 10.34218,11.20053 14.2357,15.90789 l -8.47642,12.8895 c -1.98117,3.02296 -4.2279,6.02444 -5.75928,9.364 -1.13853,0.91386 -2.20325,-3.37301 -2.69307,-4.57882 l -4.07275,-10.1208 c -2.93547,-7.25419 -6.25003,-14.39746 -8.95435,-21.76364 4.81717,-0.28525 9.60401,-1.19066 14.40742,-1.69813 z"
     id="path10"
     style="stroke-width:0.331889" />
  <path
     fill="#898658"
     d="m 29.319989,125.85344 c 0.62713,1.34949 -0.24428,5.97972 -0.35845,7.6775 -0.68437,10.19264 0.74474,9.45098 -4.16815,17.61728 l -9.56647,15.71102 c -1.6956,2.81202 -3.80344,5.76983 -4.956989,8.91605 C 9.7138012,174.33812 9.2196042,172.97314 8.9140152,171.43912 6.5340472,159.1821 2.3723412,154.42685 7.7854932,142.84986 12.907939,137.6375 23.300169,130.73265 29.319989,125.85344 Z"
     id="path11"
     style="stroke-width:0.331889" />
  <path
     fill="#d34369"
     d="m 55.284129,181.8751 c 1.53045,1.52486 15.92442,38.47798 18.18678,44.03616 -4.43902,-1.61361 -8.83363,-3.11382 -13.32363,-4.56966 -7.18651,-2.63594 -14.45246,-4.94894 -21.68714,-7.40492 2.86228,-7.88703 12.59203,-24.40134 16.82399,-32.06158 z"
     id="path12"
     style="stroke-width:0.331889" />
  <path
     fill="#eb793c"
     d="m 175.9293,114.92513 c 4.31579,-0.0507 18.21619,3.6632 23.24949,5.33632 -2.67429,6.33294 -7.8177,27.04291 -10.38033,29.93241 -6.40361,-1.92316 -12.86415,-4.72215 -19.07165,-7.344 1.99525,-9.28617 3.99049,-18.70652 6.20249,-27.92473 z"
     id="path13"
     style="stroke-width:0.331889" />
  <path
     fill="#59bdc5"
     d="m 158.13569,13.0572 c 6.35075,2.17601 20.21331,4.66756 25.24599,7.76342 2.05467,4.99331 13.75057,28.98122 13.91666,30.65997 -8.38666,-2.72573 -16.90437,-5.01268 -25.37172,-7.40175 -1.73876,-3.01944 -3.01711,-6.67172 -4.44277,-9.91196 z"
     id="path14"
     style="stroke-width:0.331889" />
  <path
     fill="#83a2a3"
     d="m 164.51428,148.0425 c 0.53267,-0.0271 1.07441,-0.002 1.60771,0 3.38369,9.04106 11.97052,20.78709 16.61598,29.8271 -5.24444,-0.0563 -11.40501,0.4395 -16.61598,1.18327 -5.7255,0.43774 -11.61114,0.96352 -17.33601,0.92091 0.20706,-7.39929 4.07337,-22.6106 5.37424,-30.58391 3.44906,-0.49655 6.92127,-0.692 10.35406,-1.34737 z"
     id="path15"
     style="stroke-width:0.331889" />
  <path
     fill="#fcb645"
     d="m 115.70884,170.24282 c 7.41202,1.41464 17.42828,10.2585 25.10273,12.63911 -3.35804,4.19672 -16.39829,12.15665 -21.40907,15.83429 -1.02437,0.66136 -1.93738,1.49493 -2.86729,2.30913 -6.35262,-4.02346 -14.24196,-6.87598 -20.868271,-10.55572 2.03372,-1.76751 3.87726,-3.87661 5.762091,-5.84308 l 7.80707,-8.09587 c 2.04091,-2.1577 4.06931,-4.66157 6.47274,-6.28786 z"
     id="path16"
     style="stroke-width:0.331889" />
  <path
     fill="#627484"
     d="m 181.66919,182.88193 c 0.96494,-0.0849 1.98211,-0.006 2.95267,0 -2.95298,10.34231 -8.50144,22.57644 -10.60053,32.63385 -4.26793,-0.72792 -8.53523,-1.60023 -12.77751,-2.49824 -0.82731,-1.68475 -1.57455,-3.43781 -2.35745,-5.15003 -3.48409,-7.36724 -7.04294,-14.73694 -10.10039,-22.34541 9.83547,0.0662 22.96955,-1.54776 32.88321,-2.64017 z"
     id="path17"
     style="stroke-width:0.331889" />
  <path
     fill="#c3791f"
     d="m 192.95347,55.36354 c 1.15886,0.49655 2.31397,0.71911 3.49848,1.08924 3.90479,9.86019 12.74279,24.84224 17.9278,34.3295 2.1216,3.88224 4.47968,7.73913 6.19248,11.87457 -2.79722,5.01585 -5.2654,10.96387 -8.214,15.69694 -4.12874,-1.20792 -8.27687,-2.51092 -12.46473,-3.42866 l 0.36377,-0.106 c 2.7478,-4.00866 -4.39773,-40.06236 -5.65794,-47.00665 -0.60617,-3.34167 -2.60736,-9.14988 -1.64586,-12.44894 z"
     id="path18"
     style="stroke-width:0.331889" />
  <path
     fill="#f8e2a9"
     d="m 105.88682,151.20069 0.35532,-0.0409 c 0.57521,0.63037 5.50905,12.50036 6.4008,14.47775 -6.61756,7.55107 -14.365511,14.05586 -20.603971,21.98304 -0.99715,-1.37308 -2.11942,-2.57219 -3.01961,-4.03965 -3.74902,-3.27512 -7.23874,-7.52043 -10.47636,-11.41324 0.006,-5.22539 -0.36033,-11.26603 0,-16.36675 3.00241,-0.79906 6.1806,-1.14382 9.23649,-1.64707 z"
     id="path19"
     style="stroke-width:0.331889" />
  <path
     fill="#c3791f"
     d="m 214.15955,127.36281 c 2.32523,1.62875 18.10139,25.89169 21.53293,30.22822 -4.80341,5.10565 -9.41696,10.40464 -14.09651,15.65186 l -3.10438,3.45331 c -5.03424,-6.52663 -10.43069,-12.97965 -15.84122,-19.10517 3.47033,-9.14495 8.90713,-21.1132 11.50918,-30.22822 z"
     id="path20"
     style="stroke-width:0.331889" />
  <path
     fill="#c3791f"
     d="m 224.39162,105.50972 c 9.25776,3.45049 17.58311,9.38513 26.53153,13.60826 -3.39964,9.82815 -8.20149,18.9967 -11.46445,28.92452 l -1.67714,3.86498 c -7.28597,-10.17644 -14.29888,-20.59235 -21.58892,-30.75823 2.63551,-4.25447 6.12554,-10.98113 8.19898,-15.63953 z"
     id="path21"
     style="stroke-width:0.331889" />
  <path
     fill="#394c5c"
     d="m 188.79846,186.10774 c 1.25457,0.88428 2.86071,3.09375 4.01301,4.31787 3.98736,4.23686 11.63303,11.40478 14.7815,16.21285 -3.36617,9.62179 -7.9547,19.50664 -14.6395,26.75625 -1.25364,1.6365 -2.71903,3.03811 -4.15501,4.46366 -1.58988,-3.98366 -8.26718,-15.94063 -10.94366,-19.43338 2.05717,-8.74314 7.80456,-23.81921 10.94366,-32.31725 z"
     id="path22"
     style="stroke-width:0.331889" />
  <path
     fill="#9886b5"
     d="m 34.689229,124.32787 c 2.20512,1.37414 4.89068,2.18376 7.27158,3.13672 5.34891,2.14044 20.25772,6.82772 24.55192,9.92992 -3.05057,7.67433 -6.07081,16.32379 -8.88523,24.14004 -1.08786,2.88597 -2.13913,5.77405 -3.1222,8.70827 l -13.22198,-14.92324 c -2.37746,-2.64227 -6.51183,-6.47944 -8.21243,-9.54501 -0.23021,-4.9433 0.40974,-16.90803 1.61834,-21.4467 z"
     id="path23"
     style="stroke-width:0.331889" />
  <path
     fill="#627484"
     d="m 93.191259,194.8861 c 6.48994,4.51402 14.255721,6.72841 21.051881,10.64164 0.142,7.80639 -0.82356,15.59728 -0.24679,23.41987 -5.02205,0.008 -10.19767,-0.39583 -15.217841,-0.70045 -5.72049,-0.71172 -14.66234,-1.32308 -20.23551,-1.07445 -0.45979,-2.42711 -1.32245,-4.55839 -2.23421,-6.79956 5.43398,-7.82188 11.01435,-18.47444 16.88247,-25.48705 z"
     id="path24"
     style="stroke-width:0.331889" />
  <path
     fill="#d34369"
     d="m 231.41611,50.01243 c 2.21138,-0.40534 6.05486,18.92627 8.04259,23.34239 -3.81063,4.09741 -12.48349,19.22349 -15.63321,24.5672 -2.00526,-2.98281 -3.9001,-6.33117 -5.3339,-9.71052 -4.11873,-6.50656 -8.5371,-15.67934 -12.09564,-22.64088 -1.53107,-2.99515 -3.45781,-5.96986 -4.69519,-9.11784 9.79231,-1.81611 20.08194,-5.06164 29.71535,-6.44035 z"
     id="path25"
     style="stroke-width:0.331889" />
  <path
     fill="#394c5c"
     d="m 159.7043,218.42499 c 2.60924,0.004 11.78161,1.94676 14.31703,2.91661 3.47846,6.26462 8.49144,12.94549 11.26926,19.51826 -8.53366,4.68693 -14.00455,8.03106 -24.04677,9.15657 -13.39494,0.50923 -15.51061,-2.57325 -25.84371,-9.15657 2.61455,-2.475 5.33107,-4.82533 7.97315,-7.26512 z"
     id="path26"
     style="stroke-width:0.331889" />
  <path
     fill="#627484"
     d="m 144.0739,187.62063 c 1.19608,0.79519 2.19292,4.49113 2.86885,5.93183 l 9.78855,20.91986 c -8.41043,6.82667 -17.56403,15.79554 -25.57347,23.38605 -4.19442,-2.78701 -8.64752,-5.06973 -12.78064,-7.98 -0.57833,-6.48577 0.45729,-17.22673 0.43477,-24.35063 3.00366,-2.40949 6.39642,-4.40872 9.50767,-6.66573 l 9.44387,-6.75659 c 2.08876,-1.50761 4.12592,-3.1589 6.3104,-4.48479 z"
     id="path28"
     style="stroke-width:0.331889" />
  <path
     fill="#fcb645"
     d="m 30.851689,151.20069 c 1.35435,1.18221 2.74624,3.33251 4.05273,4.73623 6.03578,6.48578 11.87888,13.20117 17.78361,19.83837 -1.40753,3.79068 -3.62328,7.35281 -5.53658,10.84414 -1.51981,2.77293 -11.29241,22.38979 -12.46222,23.51601 -6.50839,-8.62939 -15.30261,-20.46029 -22.58952,-28.26034 0.96025,-2.21264 2.29958,-4.24849 3.52507,-6.28258 l 10.44258,-17.25103 c 1.49229,-2.46972 2.89199,-5.02747 4.78433,-7.1408 z"
     id="path29"
     style="stroke-width:0.331889" />
  <path
     fill="#1077d1"
     d="m 153.51244,90.26073 c 0.8245,0.32399 16.89687,19.85985 18.41418,21.85837 -2.18511,10.28174 -5.00485,20.34408 -6.84432,30.73076 -3.87414,-0.0528 -7.67258,0.83533 -11.56986,0.77159 -0.20768,-0.28103 -0.43789,-0.5212 -0.67342,-0.77159 -1.35623,-2.73419 -3.07153,-5.20813 -4.72647,-7.71729 l -6.0633,-9.17242 c -3.03181,-4.58657 -5.89096,-9.70736 -9.391,-13.84105 4.66641,-5.79518 15.60726,-17.35386 20.85419,-21.85837 z"
     id="path30"
     style="stroke-width:0.331889" />
  <path
     fill="#e26b8f"
     d="M 129.13037,9.3781604 C 128.95364,10.62164 117.39568,38.79676 116.53521,40.7738 c -7.73387,3.0948 -14.93915,8.18249 -23.194441,9.10903 -12.32491,1.384 -24.68391,3.10537 -36.95815,4.94859 l -0.12949,-0.18312 c 0.46135,-1.38999 15.15435,-14.07735 17.52712,-16.25301 5.12745,-4.70102 6.68918,-5.44091 12.77813,-8.43464 L 117.51329,14.77751 c 3.81752,-1.9059 7.61502,-4.02874 11.61708,-5.3993496 z"
     id="path31"
     style="stroke-width:0.331889" />
  <path
     fill="#fa9a6c"
     d="m 130.05339,116.70496 c 5.54127,6.41218 15.34702,22.54826 19.99561,30.20498 -1.70905,10.7642 -4.24916,21.36429 -5.9751,32.14293 -3.10312,-1.44633 -6.15057,-3.32477 -9.17769,-4.98275 -2.1044,-1.08501 -16.53872,-8.60474 -17.44079,-9.79751 -1.62491,-2.14854 -5.76303,-12.60953 -6.93878,-15.49092 1.20797,-2.14784 2.62738,-4.19813 3.92418,-6.28223 l 9.1977,-14.92042 c 2.18448,-3.55297 4.5047,-7.12707 6.41487,-10.87408 z"
     id="path32"
     style="stroke-width:0.331889" />
  <path
     fill="#627484"
     d="m 93.191259,55.36354 c 0.6043,-0.0447 1.23487,-10e-4 1.84198,0 -4.45215,9.94788 -9.04569,19.79576 -13.41152,29.8021 -10.29807,1.5312 -20.54891,3.76321 -30.81665,5.56734 l -16.66822,3.07367 c -2.68962,0.51099 -5.82183,0.73215 -8.35475,1.84005 h -2.28926 c 2.26174,-3.49768 4.97294,-6.56818 7.48615,-9.82709 6.2075,-8.05008 13.57761,-17.0739 19.0926,-25.50396 4.43777,0.21622 8.7864,-0.77899 13.18601,-1.2854 z"
     id="path34"
     style="stroke-width:0.331889" />
  <path
     fill="#eb793c"
     d="m 81.621719,90.26073 c 0.54612,1.0748 2.04185,12.14679 2.82975,15.24899 -4.29232,7.99444 -10.6315,19.6232 -15.63384,26.81612 -6.14431,-2.9462 -12.67679,-5.10566 -18.99001,-7.56234 l -7.21465,-2.82118 c -1.84386,-0.73355 -3.68647,-1.57487 -5.60101,-2.03479 -5.91411,-2.75145 -4.30077,-2.70496 -8.1796,-8.75511 -2.06843,-3.22652 -4.22351,-6.38189 -6.27943,-9.61932 1.80257,-0.53141 3.71086,-0.73285 5.55065,-1.0822 l 33.53693,-6.25053 c 6.67041,-1.22235 13.36835,-2.36336 19.98121,-3.93964 z"
     id="path35"
     style="stroke-width:0.331889" />
  <path
     fill="#fa9a6c"
     d="m 103.49372,102.65685 c 1.50292,0.19298 21.2924,9.21011 23.41776,10.54445 -6.59534,10.01057 -14.31108,21.99783 -20.17702,32.57327 -3.83378,-0.0254 -9.130451,1.06494 -12.839431,2.26793 -2.65116,-0.55677 -12.91826,1.91365 -16.82555,2.15136 -1.17294,-5.08523 -2.7966,-10.08946 -4.1156,-15.13947 1.28898,-2.62361 14.30733,-25.10742 15.36109,-25.97867 1.24425,-1.02902 12.729341,-5.34231 15.178751,-6.41887 z"
     id="path36"
     style="stroke-width:0.331889" />
  <path
     fill="#6f9f8b"
     d="m 134.89621,6.9514104 c 4.93259,1.37871 12.7553,2.8666 17.26251,4.7235496 4.35863,6.20722 11.61426,26.10686 15.77272,34.32246 -4.46498,7.92472 -10.36439,14.78449 -14.419,23.03988 l -0.67342,1.20898 -18.88209,-16.64355 c -4.28326,-3.72518 -8.93278,-7.32428 -12.84726,-11.51818 2.42876,-6.80343 5.34828,-13.42268 7.93969,-20.15497 l 3.32895,-8.77624 c 0.78665,-2.09431 1.48822,-4.2389796 2.5179,-6.2019296 z"
     id="path37"
     style="stroke-width:0.331889" />
  <path
     fill="#fcb645"
     d="m 155.39165,85.16564 c 0.11729,-2.80532 -0.45229,-7.88703 0.10697,-10.28279 0.4723,-2.02282 13.90884,-22.30069 15.98041,-25.44762 7.17618,1.81681 14.34017,3.90725 21.47444,5.92831 -0.9615,3.29906 1.03969,9.10727 1.64586,12.44894 1.26021,6.94429 8.40574,42.99799 5.65794,47.00665 l -0.36377,0.106 C 196.23613,114 177.55546,109.74905 175.72037,108.6496 c -1.30525,-0.7818 -3.64581,-4.14671 -4.75118,-5.4476 l -9.84736,-11.57065 c -1.87701,-2.18306 -3.71742,-4.44148 -5.73018,-6.46571 z"
     id="path38"
     style="stroke-width:0.331889" />
  <path
     fill="#8dcbf3"
     d="m 117.33563,45.99742 c 1.1745,0.0264 3.98579,3.13707 4.98201,4.01043 l 10.56081,9.33759 c 5.99105,5.30357 12.13661,10.37717 17.9916,15.88077 -0.087,3.46352 0.0895,6.92422 0,10.3902 -4.67517,6.35618 -12.77657,12.90394 -18.2118,19.08263 -1.19546,1.13185 -2.34744,2.33449 -3.52788,3.48711 -6.18592,-2.99866 -17.28096,-8.5005 -23.58667,-10.26413 -0.23615,-12.86344 -2.55575,-31.03115 -3.89196,-44.02101 3.76497,-2.79265 11.21046,-5.73497 15.68389,-7.90359 z"
     id="path39"
     style="stroke-width:0.331889" />
</svg>
