<?xml version="1.0" encoding="UTF-8" standalone="no"?>
<svg
   class="svg-icon"
   style="overflow:hidden;fill:currentColor"
   viewBox="0 0 256 256"
   version="1.1"
   id="svg1"
   width="256"
   height="256"
   xmlns="http://www.w3.org/2000/svg"
   xmlns:svg="http://www.w3.org/2000/svg">
  <defs
     id="defs1" />
  <path
     d="m 255.99872,145.91793 c 0,2.7744 -1.01253,5.1744 -3.03941,7.20128 -2.02714,2.02713 -4.42662,3.04095 -7.19974,3.04095 h -35.8392 c 0,18.24136 -3.57226,33.70703 -10.72012,46.3996 l 33.27922,33.44176 c 2.02687,2.02406 3.04095,4.42534 3.04095,7.19974 0,2.77312 -1.01254,5.17311 -3.04095,7.19999 -1.92057,2.02405 -4.31876,3.03813 -7.19973,3.03813 -2.87969,0 -5.27994,-1.01408 -7.19974,-3.03813 l -31.68042,-31.52044 c -0.5331,0.53156 -1.33225,1.22568 -2.39871,2.07875 -1.06878,0.85281 -3.30751,2.37483 -6.72159,4.56015 -3.41253,2.18711 -6.87976,4.13387 -10.39913,5.84104 -3.52064,1.70587 -7.89538,3.25384 -13.12191,4.64077 -5.22653,1.38464 -10.40093,2.07927 -15.51909,2.07927 V 94.721424 H 117.75906 V 238.08079 c -5.43762,0 -10.8534,-0.72134 -16.23812,-2.16195 -5.38856,-1.43907 -10.027802,-3.1994 -13.92157,-5.27968 -3.89428,-2.0803 -7.413386,-4.15879 -10.559112,-6.24036 -3.147268,-2.08055 -5.465861,-3.81262 -6.961173,-5.19827 L 67.680373,216.95896 38.400206,250.08 c -2.133188,2.23873 -4.692653,3.35938 -7.680452,3.35938 -2.559979,0 -4.852123,-0.85435 -6.878228,-2.56024 -2.027388,-1.92031 -3.121074,-4.29359 -3.282598,-7.11987 -0.158955,-2.82653 0.667408,-5.30588 2.482685,-7.43984 L 55.360167,200.0008 C 49.174256,187.83878 46.080145,173.22515 46.080145,156.1581 H 10.241202 c -2.774916,0 -5.1736289,-1.01408 -7.1997336,-3.03941 C 1.0140798,151.09053 0,148.69181 0,145.91742 c 0,-2.77312 1.0140795,-5.17441 3.0414684,-7.19948 2.0261047,-2.02585 4.4248176,-3.03838 7.1997336,-3.03838 H 46.079888 V 88.641054 L 18.400062,60.961228 c -2.026362,-2.027132 -3.039929,-4.426873 -3.039929,-7.199991 0,-2.772862 1.014851,-5.1744 3.039929,-7.199734 2.025591,-2.026875 4.426358,-3.042238 7.19999,-3.042238 2.774659,0 5.172602,1.016904 7.200247,3.042238 L 60.480126,74.24133 H 195.5209 l 27.68009,-27.679827 c 2.02533,-2.026875 4.42482,-3.042238 7.19973,-3.042238 2.77312,0 5.17389,1.016904 7.19948,3.042238 2.02713,2.025334 3.04121,4.426872 3.04121,7.199734 0,2.773119 -1.01408,5.173116 -3.04121,7.199991 l -27.67983,27.679826 v 47.039266 h 35.83895 c 2.7744,0 5.17413,1.01254 7.19973,3.03993 2.02687,2.02508 3.04095,4.42636 3.04095,7.19793 v 0 l -9.8e-4,-2.5e-4 z M 179.19831,53.759953 H 76.799385 c 0,-14.185044 4.986682,-26.265919 14.960563,-36.240055 C 101.731,7.5457623 113.81368,2.56062 127.99924,2.56062 c 14.18581,0 26.26848,4.9851423 36.23979,14.959278 9.9744,9.973879 14.95928,22.055011 14.95928,36.240055 z"
     id="path1"
     style="overflow:hidden;fill:#000000;stroke-width:0.250945" />
</svg>
