<?xml version="1.0" encoding="UTF-8" standalone="no"?>
<!-- Created with Inkscape (http://www.inkscape.org/) -->

<svg
   width="67.73333mm"
   height="67.73333mm"
   viewBox="0 0 67.73333 67.733329"
   version="1.1"
   id="svg1"
   xml:space="preserve"
   xmlns="http://www.w3.org/2000/svg"
   xmlns:svg="http://www.w3.org/2000/svg"><defs
     id="defs1" /><g
     id="layer1"><g
       id="g1"
       transform="matrix(0.06202707,0,0,0.06202707,0.93682378,-13.562534)"><path
         fill="#252525"
         transform="scale(1.83765)"
         d="m 308.304,119.213 c 16.767,-1.782 35.597,7.383 51.401,11.98 53.667,15.61 54.474,2.244 78.644,50.117 7.421,14.699 16.422,28.439 26.042,41.785 27.057,37.541 22.937,28.08 22.086,73.242 -0.375,19.929 2.381,38.423 9.004,57.207 19.109,54.192 12.87,43.314 -6.453,99.752 -8.993,26.266 -13.171,54.963 -9.136,82.564 5.47,37.419 5.869,30.274 -21.575,60.143 -7.834,8.526 -26.94,32.294 -39.625,32.393 -2.25,6.536 -5.964,12.529 -8.232,19.045 -11.885,34.152 -1.308,26.423 -38.148,42.777 -15.383,6.829 -32.919,16.938 -48.669,21.76 -12.239,3.746 -29.111,-2.099 -41.632,-2.803 -3.136,-0.176 -10.44,0.439 -12.921,-0.866 -3.701,2.295 -24.258,2.971 -29.114,2.643 -17.394,-1.178 -29.306,-15.369 -44.978,-21.52 -9.478,-3.721 -17.63,-2.985 -26.44,-5.571 -8.96,-2.63 -17.339,-19.927 -22.284,-29.083 -5.489,1.977 -21.668,-4.767 -26.487,-7.987 -14.764,-9.865 -15.653,-29.888 -20.2319,-45.457 -5.7135,-19.427 -13.2236,-44.292 -20.9165,-63.137 -12.0715,-29.571 -8.7969,-18.114 -0.2101,-49.942 6.1039,-22.624 -2.448,-34.884 -6.5101,-56.256 -5.9353,-31.227 21.2412,-43.773 29.2916,-68.902 2.67,-8.334 -3.0867,-21.739 2.459,-35.095 5.532,-13.32 17.16,-16.984 23.992,-30.152 10.209,-19.677 16.259,-49.766 25.961,-65.598 4.881,-7.965 17.685,-15.488 24.584,-22.959 6.551,-7.094 10.408,-15.575 15.84,-23.422 13.75,-19.864 35.237,-17.589 53.951,-28.631 21.88,-12.909 30.045,-32.522 60.307,-38.027 z"
         id="path1" /><path
         fill="#929191"
         transform="scale(1.83765)"
         d="m 150.002,264.144 c 2.487,-7.263 3.986,-15.272 7.18,-22.224 5.621,-12.238 20.784,-19.607 29.524,-29.883 6.257,-7.356 9.574,-16.442 15.59,-23.903 12.202,-15.133 31.234,-14.078 47.259,-22.573 20.739,-10.994 34.822,-35.879 59.959,-38.436 15.057,-1.531 30.119,6.309 44.221,10.448 15.741,4.622 51.089,10.628 62.601,19.932 7.589,7.171 25,47.564 28.345,58.801 9.983,33.535 -5.077,47.507 -18.303,76.301 -25.08,54.606 11.506,80.457 2.473,119.595 -6.1,26.431 -29.574,56.095 -52.204,71.688 -28.301,19.5 -51.838,27.251 -61.677,64.04 -5.946,22.232 -3.987,40.268 -23.194,57.01 -12.242,10.671 -50.012,31.79 -65.504,32.146 -28.288,0.652 -32.123,-32.681 -54.966,-47.965 -26.936,-18.023 -51.302,2.236 -70.876,-26.55 -8.5615,-12.592 -12.9578,-27.33 -20.1235,-40.661 -1.9381,-9.627 3.1423,-19.279 5.6966,-28.354 8.4758,-30.115 -2.3338,-37.881 -6.0939,-65.281 -2.8945,-21.092 15.4497,-36.312 24.8928,-53.158 8.015,-14.298 12.684,-28.801 19.944,-42.405 l -5.322,2.047 c -3.937,4.876 -7.36,9.883 -10.634,15.231 0.492,-3.905 0.033,-9.202 1.263,-12.841 5.982,-28.938 43.055,-29.262 55.82,-60.172 1.747,-8.139 1.169,-12.866 -1.856,-20.514 0.008,-1.086 -1.013,-2.593 -1.502,-3.574 -1.822,1.677 -11.149,11.093 -12.312,11.38 z"
         id="path2" /><path
         fill="#c8c7c7"
         transform="scale(1.83765)"
         d="m 150.002,264.144 c 2.487,-7.263 3.986,-15.272 7.18,-22.224 5.621,-12.238 20.784,-19.607 29.524,-29.883 6.257,-7.356 9.574,-16.442 15.59,-23.903 12.202,-15.133 31.234,-14.078 47.259,-22.573 20.739,-10.994 34.822,-35.879 59.959,-38.436 15.057,-1.531 30.119,6.309 44.221,10.448 15.741,4.622 51.089,10.628 62.601,19.932 -9.579,4.97 -47.052,-1.705 -57.061,-5.799 -4.306,-1.761 -8.123,-4.609 -12.567,-6.049 -3.876,3.2 -15.531,-1.49 -20.074,-2.195 -11.33,-1.758 -22.699,0.346 -33.314,4.437 -2.897,1.116 -10.595,5.815 -13.501,3.832 -3.27,14.375 -46.636,26.567 -57.202,32.56 -14.462,8.204 -22.107,22.105 -31.195,35.382 -8.451,12.347 -19.237,21.976 -28.907,33.216 -1.822,1.677 -11.149,11.093 -12.312,11.38 z"
         id="path3" /><path
         fill="#252525"
         transform="scale(1.83765)"
         d="m 279.819,151.731 c 11.394,-18.349 50.646,-18.809 66.889,-6.074 -3.876,3.2 -15.531,-1.49 -20.074,-2.195 -11.33,-1.758 -22.699,0.346 -33.314,4.437 -2.897,1.116 -10.595,5.815 -13.501,3.832 z"
         id="path4" /><path
         fill="#c8c7c7"
         transform="scale(1.83765)"
         d="m 165.873,276.977 c 3.816,13.642 -23.676,42.867 -30.594,53.473 -10.85,16.636 -18.033,37.792 -28.439,55.744 -15.6132,26.933 -18.9257,35.135 -13.3865,66.724 3.9408,22.473 2.4259,41.376 -8.5809,61.546 -1.0624,1.947 -2.8342,6.255 -4.5661,7.446 -1.9381,-9.627 3.1423,-19.279 5.6966,-28.354 8.4758,-30.115 -2.3338,-37.881 -6.0939,-65.281 -2.8945,-21.092 15.4497,-36.312 24.8928,-53.158 8.015,-14.298 12.684,-28.801 19.944,-42.405 l -5.322,2.047 c -3.937,4.876 -7.36,9.883 -10.634,15.231 0.492,-3.905 0.033,-9.202 1.263,-12.841 5.982,-28.938 43.055,-29.262 55.82,-60.172 z"
         id="path5" /><path
         fill="#7f7e7f"
         transform="scale(1.83765)"
         d="m 110.053,337.149 0.366,1.1 0.999,-0.811 c 2.407,-1.97 5.057,-2.195 8.006,-2.679 -3.937,4.876 -7.36,9.883 -10.634,15.231 0.492,-3.905 0.033,-9.202 1.263,-12.841 z"
         id="path6" /><path
         fill="#272727"
         transform="scale(1.83765)"
         d="m 279.819,267.746 c 42.703,2.375 49.39,16.101 64.653,54.904 6.093,15.489 16.34,29.322 8.26,46.249 -7.955,16.663 -37.926,39.423 -54.781,46.425 -7.615,3.164 -15.729,4.093 -23.415,6.831 l -0.306,0.112 c -25.305,2.138 -25.963,-5.467 -45.853,-14.817 -17.565,-8.257 -25.024,-5.06 -29.312,-29.704 -8.133,-46.742 16.735,-93.326 63.397,-106.551 5.672,-1.608 11.552,-2.465 17.357,-3.449 z"
         id="path7" /><path
         fill="#4e4d4d"
         transform="scale(1.83765)"
         d="m 306.729,280.262 c 22.519,9.439 23.726,38.117 34.469,56.887 -30.243,10.881 -55.159,35.46 -49.286,69.564 -12.721,5.449 -29.986,9.432 -42.703,2.684 -5.03,-2.647 -9.587,-6.209 -14.642,-8.883 -7.918,-4.189 -24.501,-6.479 -24.68,-18.247 -0.265,-17.518 38.254,-21.916 49.306,-26.331 29.04,-11.599 47.398,-45.438 47.536,-75.674 z"
         id="path8" /><path
         fill="#4e4d4d"
         transform="scale(1.83765)"
         d="m 278.784,276.977 c 6.315,-1.011 13.157,0.06 19.558,0 -1.256,31.167 -18.343,63.179 -49.889,72.422 -11.811,3.46 -18.673,3.246 -30.436,9.023 -4.421,2.428 -8.098,5.223 -11.822,8.593 -1.23,-45.555 25.096,-85.481 72.589,-90.038 z"
         id="path9" /><path
         fill="#252525"
         transform="scale(1.83765)"
         d="m 324.972,152.937 4.792,-0.078 c 14.283,-0.114 41.14,0.333 38.592,21.086 -2.133,17.371 -23.788,19.44 -33.819,30.587 -9.5,10.557 -3.105,21.732 -10.849,28.988 -11.234,10.525 -41.803,12.78 -56.691,12.387 -25.367,-1.91 -60.693,-22.065 -38.625,-49.362 12.584,-15.566 27.181,-9.444 41.672,-16.203 5.124,-2.389 8.867,-7.123 12.889,-10.975 11.447,-10.962 26.685,-14.92 42.039,-16.43 z"
         id="path10" /><path
         fill="#4e4d4d"
         transform="scale(1.83765)"
         d="m 328.037,160.335 c 6.506,-0.66 13.537,-0.027 20.089,0 -5.992,4.411 -12.792,7.57 -18.615,12.252 -12.176,9.788 -15.923,16.36 -31.354,25.585 -15.463,9.245 -45.364,13.141 -48.948,34.856 -4.171,6.378 -26.926,-14.863 -14.845,-30.726 10.463,-13.741 25.348,-8.515 38.686,-14.564 5.94,-2.694 10.554,-7.752 15.307,-12.088 10.887,-9.931 25.529,-13.287 39.68,-15.315 z"
         id="path11" /><path
         fill="#252525"
         transform="scale(1.83765)"
         d="m 230.042,449.908 c -8.917,8.999 -21.291,9.769 -32.891,5.256 -11.033,-4.291 -11.441,-10.279 -19.418,-15.791 -11.826,-8.171 -24.312,-7.751 -34.658,-19.759 -25.106,-29.14 -8.528,-75.275 25.358,-90.082 -1.309,1.847 -2.927,3.52 -4.416,5.227 0.128,4.49 -4.342,9.796 -5.857,14.049 -8.55,23.991 -7.284,50.793 10.309,70.496 2.32,2.598 11.432,10.502 12.227,12.307 l -0.192,0.668 c 2.336,2.523 19.199,16.27 20.824,17.034 9.07,4.266 19.43,3.866 28.714,0.595 z"
         id="path12" /><path
         fill="#c8c7c7"
         transform="scale(1.83765)"
         d="m 164.017,334.759 c 0.128,4.49 -4.342,9.796 -5.857,14.049 -8.55,23.991 -7.284,50.793 10.309,70.496 2.32,2.598 11.432,10.502 12.227,12.307 l -0.192,0.668 c -9.591,-6.608 -20.71,-7.29 -29.339,-15.485 -24.539,-23.304 -6.723,-61.62 12.852,-82.035 z"
         id="path13" /><path
         fill="#252525"
         transform="scale(1.83765)"
         d="m 221.779,558.118 c 19.94,-0.891 52.584,21.985 47.291,41.7 -0.97,3.611 -5.985,10.267 -10.509,9.019 -6.755,3.446 -21.022,-3.043 -26.962,-6.547 -14.57,-8.592 -35.082,-38.496 -9.82,-44.172 z"
         id="path14" /><path
         fill="#4e4d4d"
         transform="scale(1.83765)"
         d="m 223.934,565.913 c 27.617,-1.715 44.819,34.384 31.527,27.656 -8.878,4.76 -51.634,-23.132 -31.527,-27.656 z"
         id="path15" /><path
         fill="#252525"
         transform="scale(1.83765)"
         d="m 179.563,499.671 q 0.539,-0.074 1.081,-0.121 0.542,-0.047 1.085,-0.067 0.544,-0.021 1.088,-0.014 0.544,0.006 1.087,0.039 0.542,0.033 1.083,0.093 0.541,0.06 1.078,0.146 0.537,0.087 1.069,0.2 0.532,0.112 1.058,0.251 0.526,0.139 1.044,0.303 0.519,0.165 1.029,0.354 0.51,0.19 1.009,0.405 0.5,0.214 0.989,0.453 0.488,0.239 0.965,0.502 0.476,0.262 0.939,0.548 0.463,0.286 0.911,0.594 0.448,0.309 0.881,0.638 0.432,0.33 0.848,0.681 0.416,0.351 0.814,0.722 0.398,0.371 0.777,0.761 0.379,0.39 0.739,0.798 0.359,0.408 0.698,0.833 0.339,0.426 0.657,0.867 0.318,0.442 0.614,0.898 0.295,0.457 0.568,0.927 0.273,0.471 0.522,0.954 0.25,0.484 0.475,0.979 0.225,0.495 0.426,1.001 0.201,0.506 0.376,1.02 0.176,0.515 0.326,1.038 0.15,0.523 0.274,1.053 0.124,0.53 0.222,1.065 0.098,0.535 0.169,1.074 0.071,0.539 0.116,1.081 0.045,0.543 0.063,1.086 0.018,0.544 0.01,1.088 -0.009,0.544 -0.044,1.087 -0.036,0.543 -0.098,1.083 -0.062,0.541 -0.151,1.077 -0.088,0.537 -0.203,1.069 -0.115,0.532 -0.256,1.057 -0.141,0.526 -0.307,1.043 -0.167,0.518 -0.359,1.027 -0.192,0.509 -0.408,1.008 -0.217,0.499 -0.458,0.987 -0.241,0.488 -0.505,0.963 -0.265,0.475 -0.553,0.937 -0.288,0.462 -0.598,0.909 -0.31,0.447 -0.641,0.878 -0.332,0.431 -0.685,0.845 -0.352,0.415 -0.724,0.811 -0.373,0.397 -0.764,0.774 -0.392,0.378 -0.802,0.736 -0.409,0.358 -0.836,0.695 -0.427,0.338 -0.869,0.654 -0.443,0.316 -0.901,0.609 -0.458,0.294 -0.93,0.565 -0.471,0.271 -0.956,0.518 -0.484,0.248 -0.98,0.471 -0.496,0.223 -1.003,0.422 -0.506,0.198 -1.022,0.372 -0.515,0.173 -1.039,0.321 -0.523,0.148 -1.053,0.27 -0.531,0.121 -1.066,0.217 -0.535,0.096 -1.075,0.165 -0.537,0.069 -1.076,0.111 -0.539,0.043 -1.08,0.059 -0.541,0.016 -1.082,0.005 -0.541,-0.01 -1.081,-0.047 -0.539,-0.037 -1.077,-0.101 -0.537,-0.063 -1.071,-0.152 -0.533,-0.09 -1.062,-0.206 -0.528,-0.115 -1.051,-0.256 -0.522,-0.142 -1.037,-0.308 -0.514,-0.167 -1.02,-0.359 -0.506,-0.191 -1.002,-0.408 -0.496,-0.216 -0.981,-0.456 -0.485,-0.24 -0.957,-0.504 -0.473,-0.263 -0.932,-0.55 -0.459,-0.286 -0.903,-0.595 -0.445,-0.309 -0.874,-0.638 -0.428,-0.331 -0.84,-0.681 -0.413,-0.351 -0.807,-0.721 -0.395,-0.37 -0.771,-0.759 -0.375,-0.39 -0.732,-0.797 -0.356,-0.407 -0.692,-0.831 -0.336,-0.424 -0.651,-0.864 -0.315,-0.44 -0.608,-0.895 -0.293,-0.455 -0.564,-0.923 -0.27,-0.469 -0.517,-0.95 -0.247,-0.482 -0.471,-0.975 -0.223,-0.492 -0.422,-0.996 -0.199,-0.503 -0.373,-1.015 -0.174,-0.513 -0.323,-1.033 -0.148,-0.52 -0.271,-1.047 -0.124,-0.527 -0.221,-1.059 -0.097,-0.533 -0.168,-1.069 -0.071,-0.536 -0.116,-1.076 -0.044,-0.539 -0.063,-1.08 -0.018,-0.541 -0.01,-1.082 0.008,-0.541 0.043,-1.081 0.035,-0.54 0.096,-1.077 0.061,-0.538 0.148,-1.072 0.087,-0.534 0.201,-1.063 0.113,-0.529 0.252,-1.052 0.139,-0.523 0.304,-1.038 0.164,-0.516 0.354,-1.023 0.189,-0.507 0.403,-1.004 0.214,-0.496 0.452,-0.982 0.238,-0.486 0.5,-0.96 0.262,-0.473 0.546,-0.934 0.285,-0.46 0.591,-0.906 0.307,-0.446 0.635,-0.876 0.328,-0.43 0.677,-0.844 0.349,-0.413 0.717,-0.81 0.369,-0.396 0.757,-0.773 0.387,-0.378 0.793,-0.736 0.405,-0.358 0.828,-0.696 0.422,-0.338 0.861,-0.655 0.439,-0.317 0.892,-0.612 0.454,-0.294 0.921,-0.567 0.468,-0.272 0.948,-0.521 0.48,-0.25 0.972,-0.475 0.492,-0.226 0.994,-0.427 0.502,-0.201 1.014,-0.377 0.512,-0.176 1.031,-0.327 0.52,-0.151 1.046,-0.276 0.526,-0.126 1.058,-0.225 0.532,-0.1 1.068,-0.173 z"
         id="path16" /><path
         fill="#4e4d4d"
         transform="scale(1.83765)"
         d="m 180.504,506.391 c 17.9,-0.721 17.238,19.243 0,21.111 -16.655,0.698 -15.96,-16.894 0,-21.111 z"
         id="path17" /><path
         fill="#4e4d4d"
         transform="scale(1.83765)"
         d="m 124.746,545.022 c -25.0027,-28.386 -10.261,-47.045 -15.65,-75.425 -1.823,-9.6 -9.3128,-21.739 -9.9922,-29.78 l 0.4936,-0.567 c 13.4826,-1.614 32.3806,28.547 30.1216,44.195 l -0.064,0.428 c -0.245,7.062 -4.637,15.291 -7.477,21.697 -4.543,12.776 -2.89,27.194 2.568,39.452 z"
         id="path18" /><path
         fill="#272727"
         transform="scale(1.83765)"
         d="m 124.746,545.022 c -25.0027,-28.386 -10.261,-47.045 -15.65,-75.425 -1.823,-9.6 -9.3128,-21.739 -9.9922,-29.78 l 0.4936,-0.567 c 13.4826,-1.614 32.3806,28.547 30.1216,44.195 l -0.064,0.428 c -0.09,-1.796 -0.249,-3.555 -0.48,-5.339 l -0.703,2.926 c -0.121,-15.919 -10.42,-29.699 -24.494,-36.494 21.344,34.665 5.506,49.484 12.909,79.5 0.54,-6.017 0.716,-13.608 3.892,-18.896 0.693,-0.569 0.909,-1.265 1.202,-2.092 l 0.558,0.728 -0.57,-0.409 -0.178,1.719 0.387,0.054 c -4.543,12.776 -2.89,27.194 2.568,39.452 z"
         id="path19" /><path
         fill="#252525"
         transform="scale(1.83765)"
         d="m 128.472,481.46 0.703,-2.926 c 0.231,1.784 0.39,3.543 0.48,5.339 -0.245,7.062 -4.637,15.291 -7.477,21.697 l -0.387,-0.054 0.178,-1.719 0.57,0.409 -0.558,-0.728 c -0.293,0.827 -0.509,1.523 -1.202,2.092 0.937,-6.375 6.14,-15.157 7.693,-24.11 z"
         id="path20" /><path
         fill="#4e4d4d"
         transform="scale(1.83765)"
         d="m 336.728,256.463 c -3.864,3.735 -12.367,12.293 -17.734,12.293 0.405,-0.635 7.374,-5.934 9.118,-7.77 12.217,-12.868 17.126,-26.211 35.891,-32.164 18.096,-5.741 31.133,4.76 48.559,5.646 2.492,0.127 13.84,-1.247 14.841,-0.729 l -1.194,1.463 c -5.911,7.697 -11.467,13.524 -21.626,14.884 -24.124,3.231 -27.249,-20.943 -61.637,2.342 -1.926,1.304 -4.09,3.148 -6.218,4.035 z"
         id="path21" /><path
         fill="#252525"
         transform="scale(1.83765)"
         d="m 336.728,256.463 c -3.864,3.735 -12.367,12.293 -17.734,12.293 0.405,-0.635 7.374,-5.934 9.118,-7.77 12.217,-12.868 17.126,-26.211 35.891,-32.164 18.096,-5.741 31.133,4.76 48.559,5.646 2.492,0.127 13.84,-1.247 14.841,-0.729 l -1.194,1.463 c -24.104,5.104 -20.99,1.036 -43.251,-3.473 -17.221,-3.488 -38.784,9.111 -46.23,24.734 z"
         id="path22" /><path
         fill="#252525"
         transform="scale(1.83765)"
         d="m 381.785,415.633 q 0.47,-0.004 0.94,0.015 0.47,0.018 0.938,0.06 0.468,0.042 0.934,0.106 0.465,0.065 0.927,0.152 0.462,0.087 0.919,0.197 0.457,0.11 0.909,0.242 0.451,0.132 0.895,0.286 0.444,0.154 0.88,0.329 0.436,0.176 0.863,0.372 0.427,0.197 0.844,0.414 0.417,0.217 0.823,0.455 0.406,0.237 0.799,0.494 0.394,0.257 0.775,0.533 0.38,0.276 0.747,0.57 0.367,0.295 0.719,0.606 0.351,0.312 0.688,0.641 0.336,0.328 0.655,0.673 0.32,0.345 0.623,0.705 0.302,0.36 0.587,0.734 0.284,0.374 0.55,0.762 0.266,0.388 0.512,0.788 0.247,0.4 0.473,0.812 0.227,0.412 0.433,0.835 0.207,0.422 0.392,0.854 0.185,0.432 0.349,0.873 0.164,0.441 0.307,0.889 0.142,0.448 0.262,0.902 0.12,0.455 0.218,0.915 0.098,0.46 0.173,0.924 0.075,0.464 0.127,0.931 0.053,0.467 0.082,0.937 0.03,0.469 0.036,0.939 0.006,0.47 -0.01,0.94 -0.017,0.47 -0.056,0.938 -0.04,0.469 -0.102,0.935 -0.062,0.466 -0.148,0.928 -0.085,0.463 -0.192,0.92 -0.108,0.458 -0.238,0.91 -0.13,0.452 -0.281,0.897 -0.152,0.444 -0.326,0.881 -0.173,0.438 -0.368,0.865 -0.194,0.428 -0.409,0.846 -0.216,0.418 -0.451,0.825 -0.236,0.407 -0.491,0.802 -0.255,0.395 -0.529,0.777 -0.274,0.382 -0.566,0.75 -0.293,0.368 -0.603,0.722 -0.31,0.353 -0.637,0.691 -0.327,0.337 -0.67,0.659 -0.343,0.321 -0.702,0.625 -0.358,0.304 -0.731,0.591 -0.373,0.286 -0.76,0.554 -0.386,0.267 -0.785,0.516 -0.399,0.248 -0.81,0.477 -0.411,0.229 -0.832,0.437 -0.422,0.208 -0.853,0.395 -0.431,0.188 -0.871,0.354 -0.44,0.166 -0.887,0.31 -0.447,0.145 -0.901,0.267 -0.454,0.122 -0.913,0.222 -0.46,0.1 -0.923,0.177 -0.464,0.078 -0.931,0.132 -0.467,0.055 -0.936,0.087 -0.469,0.031 -0.939,0.04 -0.473,0.009 -0.946,-0.006 -0.472,-0.014 -0.944,-0.052 -0.471,-0.038 -0.94,-0.099 -0.469,-0.061 -0.935,-0.145 -0.465,-0.084 -0.926,-0.191 -0.46,-0.106 -0.915,-0.236 -0.455,-0.129 -0.903,-0.281 -0.448,-0.151 -0.888,-0.325 -0.44,-0.173 -0.871,-0.368 -0.431,-0.195 -0.852,-0.411 -0.421,-0.216 -0.83,-0.452 -0.41,-0.236 -0.808,-0.492 -0.397,-0.257 -0.782,-0.532 -0.384,-0.275 -0.755,-0.569 -0.37,-0.295 -0.726,-0.606 -0.355,-0.312 -0.695,-0.641 -0.34,-0.329 -0.663,-0.675 -0.323,-0.345 -0.629,-0.706 -0.305,-0.361 -0.593,-0.736 -0.288,-0.376 -0.557,-0.765 -0.268,-0.389 -0.518,-0.791 -0.249,-0.402 -0.478,-0.816 -0.229,-0.413 -0.438,-0.838 -0.209,-0.424 -0.396,-0.859 -0.188,-0.434 -0.354,-0.877 -0.165,-0.443 -0.309,-0.893 -0.144,-0.451 -0.266,-0.908 -0.121,-0.457 -0.22,-0.92 -0.099,-0.462 -0.175,-0.929 -0.076,-0.467 -0.129,-0.937 -0.053,-0.47 -0.083,-0.942 -0.029,-0.472 -0.036,-0.945 -0.007,-0.473 0.01,-0.946 0.017,-0.472 0.057,-0.944 0.04,-0.471 0.103,-0.94 0.064,-0.468 0.15,-0.933 0.086,-0.465 0.195,-0.926 0.109,-0.46 0.24,-0.914 0.132,-0.455 0.285,-0.902 0.154,-0.447 0.33,-0.886 0.175,-0.44 0.372,-0.87 0.197,-0.43 0.415,-0.849 0.217,-0.42 0.456,-0.829 0.238,-0.409 0.496,-0.805 0.258,-0.396 0.535,-0.779 0.277,-0.384 0.573,-0.753 0.296,-0.369 0.609,-0.723 0.314,-0.354 0.644,-0.692 0.331,-0.338 0.678,-0.66 0.347,-0.322 0.709,-0.626 0.362,-0.304 0.739,-0.59 0.377,-0.285 0.767,-0.552 0.39,-0.267 0.793,-0.515 0.403,-0.247 0.818,-0.475 0.415,-0.227 0.84,-0.434 0.425,-0.206 0.861,-0.392 0.435,-0.185 0.878,-0.349 0.444,-0.164 0.895,-0.306 0.451,-0.141 0.909,-0.261 0.457,-0.119 0.92,-0.216 0.463,-0.097 0.93,-0.17 0.467,-0.074 0.938,-0.125 0.47,-0.051 0.942,-0.078 0.472,-0.028 0.945,-0.032 z"
         id="path23" /><path
         fill="#272727"
         transform="scale(1.83765)"
         d="m 390.878,425.603 c 11.626,8.659 -3.743,25.978 -16.735,19.363 -2.741,-2.112 -4.098,-4.232 -5.33,-7.433 10.899,4.05 18.731,-1.41 22.065,-11.93 z"
         id="path24" /><path
         fill="#4e4d4d"
         transform="scale(1.83765)"
         d="m 380.062,423.464 c 3.836,-0.27 5.957,0.117 9.291,2.139 -1.926,5.048 -5.189,8.547 -9.291,11.93 -15.649,-1.077 -10.329,-10.558 0,-14.069 z"
         id="path25" /><path
         fill="#4e4d4d"
         transform="scale(1.83765)"
         d="m 233.212,494.843 c 4.184,-0.545 8.454,-0.763 12.6,-1.553 20.61,-3.928 34.87,-30.588 57.71,-22.277 12.937,4.708 14.162,6.392 28.307,8.522 l -6.857,1.925 c -28.973,18.387 -20.952,6.826 -46.877,9.321 -12.999,1.25 -23.634,9.787 -37.283,5.834 -2.612,-0.375 -5.07,-1.049 -7.6,-1.772 z"
         id="path26" /><path
         fill="#252525"
         transform="scale(1.83765)"
         d="m 233.212,494.843 c 4.184,-0.545 8.454,-0.763 12.6,-1.553 20.61,-3.928 34.87,-30.588 57.71,-22.277 12.937,4.708 14.162,6.392 28.307,8.522 l -6.857,1.925 c -13.188,-0.114 -23.81,-8.129 -33.375,-6.994 -19.008,2.255 -27.545,22.731 -50.785,22.149 -2.612,-0.375 -5.07,-1.049 -7.6,-1.772 z"
         id="path27" /><path
         fill="#252525"
         transform="scale(1.83765)"
         d="m 180.504,300.531 c 14.377,-11.222 14.987,-12.085 12.253,-28.833 -1.336,-8.187 4.213,-11.29 8.294,-17.197 7.065,-10.226 -2.416,-22.192 1.289,-27.609 l 0.613,-0.104 c 1.504,2.561 2.299,5.608 3.242,8.414 7.902,8.242 14.399,26.934 0,32.544 -2.697,1.52 -5.592,2.464 -8.569,3.282 5.791,17.116 0.162,25.905 -17.122,29.503 z"
         id="path28" /><path
         fill="#4e4d4d"
         transform="scale(1.83765)"
         d="m 206.195,235.202 c 7.902,8.242 14.399,26.934 0,32.544 -4.474,-1.233 -5.466,-1.797 -5.872,-6.629 7.751,-9.996 8.945,-12.258 5.872,-25.915 z"
         id="path29" /><path
         fill="#4e4d4d"
         transform="scale(1.83765)"
         d="m 197.626,271.028 c -1.613,-5.108 -1.673,-6.442 2.697,-9.911 0.406,4.832 1.398,5.396 5.872,6.629 -2.697,1.52 -5.592,2.464 -8.569,3.282 z"
         id="path30" /><path
         fill="#252525"
         transform="scale(1.83765)"
         d="m 413.116,308.565 0.237,0.247 c -0.452,7.402 -20.19,22.837 -16.97,42.8 0.252,1.561 0.702,3.126 0.634,4.713 l -0.697,-10e-4 c -8.025,-19.037 2.138,-35.061 16.796,-47.759 z"
         id="path31" /><path
         fill="#252525"
         transform="scale(1.83765)"
         d="m 183.968,321.735 q 0.114,-0.043 0.229,-0.081 0.116,-0.037 0.234,-0.069 0.117,-0.032 0.236,-0.058 0.119,-0.025 0.239,-0.045 0.12,-0.02 0.241,-0.034 0.12,-0.014 0.242,-0.023 0.121,-0.008 0.243,-0.01 0.121,-0.002 0.243,0.002 0.122,0.004 0.243,0.014 0.121,0.01 0.242,0.026 0.12,0.016 0.24,0.038 0.12,0.022 0.238,0.049 0.118,0.028 0.235,0.062 0.117,0.033 0.232,0.073 0.116,0.039 0.229,0.084 0.113,0.045 0.223,0.095 0.111,0.051 0.219,0.107 0.108,0.055 0.213,0.117 0.106,0.061 0.208,0.127 0.102,0.066 0.2,0.137 0.099,0.072 0.194,0.148 0.095,0.076 0.186,0.156 0.091,0.081 0.178,0.166 0.087,0.085 0.17,0.174 0.083,0.089 0.161,0.182 0.078,0.094 0.152,0.19 0.073,0.097 0.142,0.198 0.068,0.1 0.132,0.204 0.064,0.104 0.122,0.21 0.059,0.107 0.112,0.216 0.053,0.11 0.1,0.222 0.048,0.112 0.09,0.226 0.042,0.114 0.078,0.23 0.037,0.116 0.067,0.234 0.031,0.118 0.055,0.237 0.025,0.119 0.044,0.239 0.019,0.12 0.032,0.241 0.012,0.121 0.019,0.243 0.007,0.121 0.008,0.243 10e-4,0.122 -0.004,0.243 -0.006,0.122 -0.017,0.243 -0.011,0.121 -0.028,0.241 -0.017,0.121 -0.04,0.24 -0.023,0.12 -0.052,0.238 -0.029,0.118 -0.064,0.235 -0.035,0.116 -0.075,0.231 -0.041,0.115 -0.087,0.227 -0.046,0.113 -0.097,0.223 -0.052,0.11 -0.109,0.218 -0.057,0.107 -0.119,0.212 -0.062,0.104 -0.129,0.206 -0.067,0.101 -0.14,0.199 -0.072,0.098 -0.149,0.192 -0.077,0.094 -0.158,0.185 -0.082,0.09 -0.167,0.176 -0.086,0.086 -0.176,0.168 -0.09,0.082 -0.184,0.159 -0.094,0.078 -0.192,0.15 -0.097,0.073 -0.198,0.141 -0.102,0.067 -0.206,0.13 -0.104,0.062 -0.211,0.12 -0.108,0.057 -0.218,0.109 -0.11,0.052 -0.222,0.099 -0.112,0.046 -0.227,0.087 -0.113,0.04 -0.228,0.075 -0.115,0.035 -0.232,0.064 -0.116,0.029 -0.234,0.053 -0.118,0.023 -0.237,0.041 -0.118,0.018 -0.238,0.029 -0.119,0.012 -0.239,0.018 -0.12,0.006 -0.24,0.006 -0.121,0.001 -0.24,-0.005 -0.12,-0.006 -0.24,-0.017 -0.12,-0.012 -0.238,-0.029 -0.119,-0.018 -0.237,-0.041 -0.118,-0.023 -0.235,-0.052 -0.116,-0.029 -0.231,-0.063 -0.115,-0.035 -0.229,-0.075 -0.113,-0.04 -0.224,-0.085 -0.111,-0.046 -0.22,-0.097 -0.109,-0.051 -0.215,-0.107 -0.106,-0.056 -0.209,-0.117 -0.104,-0.061 -0.204,-0.128 -0.1,-0.066 -0.197,-0.137 -0.097,-0.071 -0.19,-0.147 -0.093,-0.075 -0.183,-0.155 -0.089,-0.081 -0.175,-0.165 -0.085,-0.084 -0.167,-0.173 -0.081,-0.088 -0.158,-0.181 -0.076,-0.092 -0.149,-0.188 -0.072,-0.096 -0.139,-0.195 -0.068,-0.1 -0.131,-0.202 -0.062,-0.103 -0.12,-0.208 -0.057,-0.106 -0.109,-0.214 -0.053,-0.108 -0.1,-0.219 -0.047,-0.11 -0.088,-0.223 -0.041,-0.113 -0.077,-0.227 -0.036,-0.115 -0.067,-0.231 -0.03,-0.116 -0.055,-0.234 -0.024,-0.118 -0.043,-0.236 -0.019,-0.119 -0.032,-0.238 -0.013,-0.12 -0.02,-0.24 -0.007,-0.119 -0.009,-0.24 -0.001,-0.12 0.004,-0.24 0.004,-0.12 0.014,-0.239 0.011,-0.12 0.027,-0.239 0.016,-0.119 0.038,-0.237 0.022,-0.118 0.05,-0.235 0.027,-0.117 0.061,-0.232 0.033,-0.116 0.072,-0.229 0.039,-0.114 0.083,-0.226 0.045,-0.111 0.095,-0.221 0.049,-0.109 0.105,-0.216 0.055,-0.106 0.115,-0.21 0.06,-0.104 0.125,-0.205 0.066,-0.101 0.136,-0.198 0.07,-0.098 0.144,-0.192 0.075,-0.094 0.154,-0.184 0.08,-0.091 0.163,-0.177 0.084,-0.086 0.171,-0.168 0.088,-0.082 0.179,-0.16 0.092,-0.078 0.187,-0.151 0.095,-0.073 0.194,-0.142 0.099,-0.068 0.201,-0.132 0.102,-0.064 0.206,-0.122 0.105,-0.059 0.213,-0.112 0.108,-0.053 0.218,-0.101 0.11,-0.048 0.222,-0.091 z"
         id="path32" /><path
         fill="#252525"
         transform="scale(1.83765)"
         d="m 168.433,408.057 c 2.186,0.944 14.94,9.844 18.218,11.89 -7.856,0.255 -15.727,-4.179 -18.218,-11.89 z"
         id="path33" /><path
         fill="#4e4d4d"
         transform="scale(1.83765)"
         d="m 456.406,225.606 c 6.575,8.72 19.186,26.647 21.727,35.634 2.809,9.932 0.519,19.849 0.237,29.892 -0.726,25.833 2.404,47.479 11.736,71.736 9.847,25.594 17.274,30.001 -9.716,44.413 -22.925,12.241 -25.947,33.52 -38.743,53.922 -9.546,15.221 -24.842,25.613 -30.184,43.465 -4.015,13.419 -1.134,28.034 -0.872,41.752 0.591,30.945 -12.14,38.115 -24.329,60.578 -4.584,8.447 -12.556,32.78 -22.93,35.118 -25.662,5.784 -54.334,-29.061 -98.236,4.972 -32.629,25.295 -24.831,21.31 -62.567,9.278 -25.377,-8.092 -84.003,-2.057 -88.158,-32.854 -1.548,-2.548 -11.04,-39.833 -14.9547,-48.873 31.6627,28.449 55.7567,-5.278 86.0407,41.929 24.861,38.754 45.408,34.14 82.263,13.432 22.596,-12.696 41.438,-23.146 49.042,-49.696 5.845,-20.406 4.977,-37.78 18.892,-55.974 11.267,-14.731 27.274,-21.713 42.467,-31.401 19.949,-12.72 35.267,-31.66 47.362,-51.742 32.76,-54.39 -7.621,-73.569 1.642,-123.669 4.722,-25.542 23.966,-44.162 28.521,-68.053 1.512,-7.934 0.609,-15.856 0.76,-23.859 z"
         id="path34" /><path
         fill="#252525"
         transform="scale(1.83765)"
         d="m 403.639,492.708 c -0.009,1.553 -5.623,7.514 -6.789,9.136 -6.919,9.625 -13.392,20 -15.943,31.729 -3.933,18.075 -1.103,39.777 -13.04,55.247 -4.22,5.468 -18.228,17.688 -25.009,18.593 l -0.127,-0.072 c 0.664,-1.058 2.26,-1.997 3.254,-2.787 46.943,-37.302 6.738,-71.634 57.654,-111.846 z"
         id="path35" /><path
         fill="#252525"
         transform="scale(1.83765)"
         d="m 460.137,267.746 c 16.686,0.251 3.579,48.519 6.346,58.679 2.117,7.775 9.184,11.608 13.169,18.22 l -0.3,0.512 c -4.524,-3.656 -10.758,-5.357 -14.273,-10.176 -13.79,-18.908 10.386,-46.409 -4.942,-67.235 z"
         id="path36" /><path
         fill="#252525"
         transform="scale(1.83765)"
         d="m 366.049,539.312 c 3.128,6.984 -3.174,36.231 -8.192,43.519 -3.047,4.426 -14.853,17.413 -19.536,18.293 l -0.739,0.519 c 3.405,-6.929 13.635,-16.36 18.581,-25.57 7.153,-13.316 5.39,-23.823 9.886,-36.761 z"
         id="path37" /><path
         fill="#252525"
         transform="scale(1.83765)"
         d="m 129.655,607.413 c 1.886,0.854 5.044,0.631 7.227,1.274 10.409,3.063 6.773,15.812 22.518,20.169 4.598,1.272 13.309,3.412 17.529,0.992 -1.233,1.18 -2.157,1.789 -3.961,1.467 -7.209,5.401 -25.279,1.258 -29.963,-6.768 -2.116,-3.627 -3.484,-7.777 -6.541,-10.773 -5.167,-5.064 -13.8,-3.455 -6.809,-6.361 z"
         id="path38" /><path
         fill="#252525"
         transform="scale(1.83765)"
         d="m 451.542,313.557 c 0.928,6.52 0.018,10.656 2.141,18.434 1.246,4.566 6.496,14.201 6.454,17.999 -6.849,-9.343 -12.922,-25.309 -8.595,-36.433 z"
         id="path39" /><path
         fill="#4e4d4d"
         transform="scale(1.83765)"
         d="m 407.886,632.424 0.344,0.314 -0.011,0.709 c -8.617,12.197 -8.837,32.631 -16.113,38.915 -2.82,2.435 -49.043,22.152 -50.908,22.046 0.723,-0.204 27.348,-25.754 27.615,-26.22 -1.871,1.889 -8.931,4.327 -11.709,5.758 -14.341,7.391 -22.243,21.505 -34.587,28.399 -11.384,6.356 -29.844,-1.112 -42.205,-1.753 -35.93,-1.864 -30.144,11.953 -66.863,-10.627 -2.56,-1.573 -6.506,-3.107 -8.579,-5.123 -0.33,0.007 -13.028,-4.915 -16.244,-5.487 -20.422,-3.634 -22.441,-1.277 -30.334,-22.79 1.761,1.082 26.509,3.736 30.984,4.612 9.003,1.762 17.251,5.346 25.778,8.587 38.222,14.527 45.373,-17.152 76.015,-27.27 26.758,-8.836 50.86,11.262 74.03,7.774 6.134,-0.924 8.256,-5.884 13.325,-8.15 9.597,-4.291 21.01,-5.895 29.462,-9.694 z"
         id="path40" /><path
         fill="#252525"
         transform="scale(1.83765)"
         d="m 271.141,673.664 c 2.204,0.885 5.128,0.121 7.521,0.809 10.523,3.026 27.88,12.683 38.38,10.369 -8.586,4.448 -29.383,1.958 -37.223,-4.555 -2.719,0.206 -5.384,-1.404 -8.319,-1.152 -8.038,0.69 -19.067,5.907 -25.646,10.554 -1.915,1.352 -2.858,3.679 -5.042,4.719 0.386,-0.367 0.301,-0.238 0.543,-0.613 l 0.728,-1.143 c 10.172,-16.111 19.295,-12.56 29.058,-18.988 z"
         id="path41" /><path
         fill="#252525"
         transform="scale(1.83765)"
         d="m 200.323,669.869 c 4.525,2.486 19.259,10.41 23.611,10.418 -5.481,3.208 -21.364,-5.687 -23.611,-10.418 z"
         id="path42" /><path
         fill="#252525"
         transform="scale(1.83765)"
         d="m 346.708,656.565 c 0.473,0.167 0.939,0.324 1.422,0.459 l 0.418,0.112 c -0.154,-0.041 -0.318,-0.034 -0.477,-0.05 l -0.232,0.447 c -4.357,1.703 -19.466,8.061 -22.867,7.666 -0.466,0.411 -0.992,0.708 -1.518,1.035 7.521,-7.897 18.191,-6.319 23.254,-9.669 z"
         id="path43" /><path
         fill="#4e4d4d"
         transform="scale(1.83765)"
         d="m 494.496,409.397 c 1.068,1.688 -3.864,14.25 -4.742,16.729 -12.536,35.361 -25.121,72.844 -18.484,110.845 6.234,35.694 6.137,25.381 -19.164,53.357 -24.004,26.542 -17.292,24.368 -54.293,36.419 -2.781,0.906 -7.671,3.308 -10.451,3.101 -1.219,1.074 -2.392,1.66 -4.078,1.467 2.751,-3.2 9.754,-19.573 13.061,-24.93 18.168,-29.425 24.58,-34.115 21.813,-73.413 -2.798,-39.722 8.683,-35.164 28.84,-64.501 23.169,-33.718 5.968,-36.561 47.498,-59.074 z"
         id="path44" /><path
         fill="#252525"
         transform="scale(1.83765)"
         d="m 477.022,432.279 c 0.364,0.368 0.242,0.137 0.301,0.723 -11.956,18.899 -2.291,32.297 -18.146,51.039 -10.203,12.061 -11.496,22.365 -11.011,37.593 l -0.363,0.276 c -8.319,-31.755 2.595,-28.982 12.22,-50.805 6.387,-14.48 2.051,-24.835 16.999,-38.826 z"
         id="path45" /><path
         fill="#252525"
         transform="scale(1.83765)"
         d="m 447.803,539.312 c 3.63,3.307 5.887,14.843 6.062,19.689 0.827,22.847 -18.718,25.557 -32.383,37.683 -6.028,5.349 -8.662,11.813 -13.596,17.137 -0.37,1.393 -0.78,2.595 -1.999,3.444 9.004,-45.031 50.175,-24.332 41.916,-77.953 z"
         id="path46" /><path
         fill="#4e4d4d"
         transform="scale(1.83765)"
         d="m 162.515,252.889 c 0.489,0.981 1.51,2.488 1.502,3.574 0.181,3.394 0.836,8.017 0,11.283 -2.887,18.214 -17.324,26.244 -29.781,37.145 2.277,-7.585 6.092,-15.108 9.15,-22.441 2.066,-5.901 3.799,-12.774 6.616,-18.306 l 0.201,0.125 c 1.163,-0.287 10.49,-9.703 12.312,-11.38 z"
         id="path47" /><path
         fill="#7f7e7f"
         transform="scale(1.83765)"
         d="m 162.515,252.889 c 0.489,0.981 1.51,2.488 1.502,3.574 0.181,3.394 0.836,8.017 0,11.283 -9.349,4.392 -13.691,10.575 -20.631,14.704 2.066,-5.901 3.799,-12.774 6.616,-18.306 l 0.201,0.125 c 1.163,-0.287 10.49,-9.703 12.312,-11.38 z"
         id="path48" /></g></g></svg>
